<svg width="880" height="124" viewBox="0 0 880 124" fill="none" xmlns="http://www.w3.org/2000/svg">
<rect width="880" height="124" rx="62" fill="#FFE8B3"/>
<path d="M179.248 82V77.52H190.192V44.88H179.248V40.4H205.872V44.88H194.928V77.52H205.872V82H179.248ZM214.581 82V51.92H217.717L218.165 54.416C220.426 52.24 222.858 51.152 225.461 51.152C228.192 51.152 230.09 52.24 231.157 54.416C233.418 52.24 235.85 51.152 238.453 51.152C240.458 51.152 242.037 51.792 243.189 53.072C244.384 54.3093 244.981 56.0373 244.981 58.256V82H240.565V58.768C240.565 56.4213 239.498 55.248 237.365 55.248C235.402 55.248 233.61 56.0587 231.989 57.68V82H227.573V58.768C227.573 56.4213 226.506 55.248 224.373 55.248C222.41 55.248 220.618 56.0587 218.997 57.68V82H214.581ZM253.434 95.44V51.92H256.89L257.402 55.12C260.901 52.4747 264.591 51.152 268.474 51.152C272.527 51.152 275.727 52.5813 278.074 55.44C280.463 58.2987 281.658 62.1387 281.658 66.96C281.658 71.7813 280.463 75.6213 278.074 78.48C275.727 81.3387 272.527 82.768 268.474 82.768C266.682 82.768 264.89 82.4693 263.098 81.872C261.349 81.2747 259.663 80.4 258.042 79.248V95.44H253.434ZM267.706 78.416C270.607 78.416 272.869 77.392 274.49 75.344C276.111 73.296 276.922 70.5013 276.922 66.96C276.922 63.4187 276.111 60.624 274.49 58.576C272.869 56.528 270.607 55.504 267.706 55.504C266.127 55.504 264.463 55.8027 262.714 56.4C261.007 56.9973 259.45 57.8293 258.042 58.896V75.024C259.45 76.0907 261.007 76.9227 262.714 77.52C264.463 78.1173 266.127 78.416 267.706 78.416ZM303.935 82.768C300.906 82.768 298.239 82.1067 295.935 80.784C293.631 79.4613 291.839 77.6267 290.559 75.28C289.322 72.8907 288.703 70.1173 288.703 66.96C288.703 63.8027 289.322 61.0507 290.559 58.704C291.839 56.3147 293.631 54.4587 295.935 53.136C298.239 51.8133 300.906 51.152 303.935 51.152C307.007 51.152 309.674 51.8133 311.935 53.136C314.239 54.4587 316.01 56.3147 317.247 58.704C318.527 61.0507 319.167 63.8027 319.167 66.96C319.167 70.1173 318.527 72.8907 317.247 75.28C316.01 77.6267 314.239 79.4613 311.935 80.784C309.674 82.1067 307.007 82.768 303.935 82.768ZM303.935 78.416C307.22 78.416 309.78 77.392 311.615 75.344C313.492 73.296 314.431 70.5013 314.431 66.96C314.431 63.4187 313.492 60.624 311.615 58.576C309.78 56.528 307.22 55.504 303.935 55.504C300.692 55.504 298.132 56.528 296.255 58.576C294.378 60.624 293.439 63.4187 293.439 66.96C293.439 70.5013 294.378 73.296 296.255 75.344C298.132 77.392 300.692 78.416 303.935 78.416ZM330.436 82V51.92H334.148L334.788 57.168C336.537 55.1627 338.479 53.6693 340.612 52.688C342.788 51.664 345.135 51.152 347.652 51.152C350.468 51.152 352.729 51.7493 354.436 52.944L352.708 57.104C351.897 56.5493 351.044 56.1653 350.148 55.952C349.295 55.696 348.335 55.568 347.268 55.568C342.447 55.568 338.372 57.8507 335.044 62.416V82H330.436ZM384.073 82.768C376.606 82.768 372.873 78.992 372.873 71.44V56.144H362.953V51.92H372.873V42.192L377.481 39.632V51.92H390.281V56.144H377.481V70.736C377.481 73.424 378.036 75.3867 379.145 76.624C380.254 77.8187 382.004 78.416 384.393 78.416C387.081 78.416 389.598 77.776 391.945 76.496L393.225 80.592C390.452 82.0427 387.401 82.768 384.073 82.768ZM451.859 82.768C448.958 82.768 446.291 82.32 443.859 81.424C441.427 80.528 439.272 79.184 437.395 77.392L440.019 73.616C441.64 75.152 443.454 76.304 445.459 77.072C447.464 77.84 449.64 78.224 451.987 78.224C455.144 78.224 457.555 77.5627 459.219 76.24C460.883 74.8747 461.715 72.912 461.715 70.352C461.715 68.3893 461.224 66.896 460.243 65.872C459.262 64.848 457.683 64.08 455.507 63.568L448.787 62.032C445.544 61.3067 443.112 60.0693 441.491 58.32C439.912 56.5707 439.123 54.2453 439.123 51.344C439.123 47.6747 440.36 44.816 442.835 42.768C445.352 40.6773 448.766 39.632 453.075 39.632C457.982 39.632 462.27 41.0827 465.939 43.984L463.507 47.824C460.435 45.392 456.915 44.176 452.947 44.176C450.088 44.176 447.87 44.7947 446.291 46.032C444.712 47.2267 443.923 48.9333 443.923 51.152C443.923 52.9013 444.414 54.2667 445.395 55.248C446.376 56.2293 447.955 56.976 450.131 57.488L456.851 59.024C460.136 59.7493 462.568 61.008 464.147 62.8C465.726 64.5493 466.515 67.0027 466.515 70.16C466.515 74.128 465.235 77.2213 462.675 79.44C460.158 81.6587 456.552 82.768 451.859 82.768ZM495.448 82.768C487.981 82.768 484.248 78.992 484.248 71.44V56.144H474.328V51.92H484.248V42.192L488.856 39.632V51.92H501.656V56.144H488.856V70.736C488.856 73.424 489.411 75.3867 490.52 76.624C491.629 77.8187 493.379 78.416 495.768 78.416C498.456 78.416 500.973 77.776 503.32 76.496L504.6 80.592C501.827 82.0427 498.776 82.768 495.448 82.768ZM523.869 82.768C520.2 82.768 517.362 81.936 515.357 80.272C513.352 78.5653 512.349 76.2187 512.349 73.232C512.349 70.3733 513.288 68.1973 515.165 66.704C517.042 65.2107 519.858 64.464 523.613 64.464H535.133V63.184C535.133 60.4107 534.472 58.448 533.149 57.296C531.869 56.1013 529.672 55.504 526.557 55.504C522.546 55.504 518.92 56.3787 515.677 58.128L514.205 54.096C517.874 52.1333 522.056 51.152 526.749 51.152C531.272 51.152 534.557 52.0693 536.605 53.904C538.696 55.696 539.741 58.5547 539.741 62.48V82H536.285L535.709 78.8C533.96 80.1227 532.104 81.1253 530.141 81.808C528.178 82.448 526.088 82.768 523.869 82.768ZM524.509 78.416C528.52 78.416 532.061 77.264 535.133 74.96V68.56H523.485C521.309 68.56 519.688 68.9653 518.621 69.776C517.597 70.544 517.085 71.696 517.085 73.232C517.085 74.9387 517.704 76.24 518.941 77.136C520.178 77.9893 522.034 78.416 524.509 78.416ZM569.698 82.768C562.231 82.768 558.498 78.992 558.498 71.44V56.144H548.578V51.92H558.498V42.192L563.106 39.632V51.92H575.906V56.144H563.106V70.736C563.106 73.424 563.661 75.3867 564.77 76.624C565.879 77.8187 567.629 78.416 570.018 78.416C572.706 78.416 575.223 77.776 577.57 76.496L578.85 80.592C576.077 82.0427 573.026 82.768 569.698 82.768ZM602.663 82.768C597.5 82.768 593.426 81.36 590.439 78.544C587.495 75.728 586.023 71.8667 586.023 66.96C586.023 63.7173 586.663 60.9227 587.943 58.576C589.223 56.2293 591.015 54.416 593.319 53.136C595.623 51.8133 598.311 51.152 601.383 51.152C604.37 51.152 606.951 51.7707 609.127 53.008C611.303 54.2027 612.967 55.9093 614.119 58.128C615.314 60.304 615.911 62.9067 615.911 65.936C615.911 66.3627 615.911 66.7893 615.911 67.216C615.911 67.6427 615.868 68.0907 615.783 68.56H590.823C591.122 71.7173 592.295 74.1493 594.343 75.856C596.391 77.5627 599.207 78.416 602.791 78.416C606.375 78.416 609.767 77.3707 612.967 75.28L614.951 79.056C613.031 80.336 611.068 81.2747 609.063 81.872C607.058 82.4693 604.924 82.768 602.663 82.768ZM590.951 64.464H611.239C610.94 61.648 609.938 59.4507 608.231 57.872C606.524 56.2933 604.22 55.504 601.319 55.504C598.46 55.504 596.114 56.2933 594.279 57.872C592.487 59.4507 591.378 61.648 590.951 64.464ZM622.956 82V51.92H626.092L626.54 54.416C628.801 52.24 631.233 51.152 633.836 51.152C636.567 51.152 638.465 52.24 639.532 54.416C641.793 52.24 644.225 51.152 646.828 51.152C648.833 51.152 650.412 51.792 651.564 53.072C652.759 54.3093 653.356 56.0373 653.356 58.256V82H648.94V58.768C648.94 56.4213 647.873 55.248 645.74 55.248C643.777 55.248 641.985 56.0587 640.364 57.68V82H635.948V58.768C635.948 56.4213 634.881 55.248 632.748 55.248C630.785 55.248 628.993 56.0587 627.372 57.68V82H622.956ZM676.913 82.768C671.75 82.768 667.676 81.36 664.689 78.544C661.745 75.728 660.273 71.8667 660.273 66.96C660.273 63.7173 660.913 60.9227 662.193 58.576C663.473 56.2293 665.265 54.416 667.569 53.136C669.873 51.8133 672.561 51.152 675.633 51.152C678.62 51.152 681.201 51.7707 683.377 53.008C685.553 54.2027 687.217 55.9093 688.369 58.128C689.564 60.304 690.161 62.9067 690.161 65.936C690.161 66.3627 690.161 66.7893 690.161 67.216C690.161 67.6427 690.118 68.0907 690.033 68.56H665.073C665.372 71.7173 666.545 74.1493 668.593 75.856C670.641 77.5627 673.457 78.416 677.041 78.416C680.625 78.416 684.017 77.3707 687.217 75.28L689.201 79.056C687.281 80.336 685.318 81.2747 683.313 81.872C681.308 82.4693 679.174 82.768 676.913 82.768ZM665.201 64.464H685.489C685.19 61.648 684.188 59.4507 682.481 57.872C680.774 56.2933 678.47 55.504 675.569 55.504C672.71 55.504 670.364 56.2933 668.529 57.872C666.737 59.4507 665.628 61.648 665.201 64.464ZM699.446 82V51.92H702.902L703.414 55.12C705.163 53.7973 706.977 52.816 708.854 52.176C710.731 51.4933 712.715 51.152 714.806 51.152C718.347 51.152 721.014 52.0907 722.806 53.968C724.641 55.8453 725.558 58.6827 725.558 62.48V82H720.95V63.184C720.95 60.496 720.395 58.5547 719.286 57.36C718.177 56.1227 716.427 55.504 714.038 55.504C712.331 55.504 710.603 55.8027 708.854 56.4C707.147 56.9547 705.547 57.7867 704.054 58.896V82H699.446ZM755.323 82.768C747.856 82.768 744.123 78.992 744.123 71.44V56.144H734.203V51.92H744.123V42.192L748.731 39.632V51.92H761.531V56.144H748.731V70.736C748.731 73.424 749.286 75.3867 750.395 76.624C751.504 77.8187 753.254 78.416 755.643 78.416C758.331 78.416 760.848 77.776 763.195 76.496L764.475 80.592C761.702 82.0427 758.651 82.768 755.323 82.768Z" fill="#724C6A"/>
<path d="M134 68V76C134 77.0609 133.579 78.0783 132.828 78.8284C132.078 79.5786 131.061 80 130 80H102C100.939 80 99.9217 79.5786 99.1716 78.8284C98.4214 78.0783 98 77.0609 98 76V68M126 54L116 44M116 44L106 54M116 44V68" stroke="#724C6A" stroke-width="4" stroke-linecap="round" stroke-linejoin="round"/>
</svg>
