<svg width="94" height="526" viewBox="0 0 94 526" fill="none" xmlns="http://www.w3.org/2000/svg">
<path d="M47 0L57.5522 32.4762H91.6997L64.0737 52.5476L74.6259 85.0238L47 64.9524L19.3741 85.0238L29.9263 52.5476L2.30034 32.4762H36.4478L47 0Z" fill="#0B093A"/>
<path d="M47 144L57.5522 176.476H91.6997L64.0737 196.548L74.6259 229.024L47 208.952L19.3741 229.024L29.9263 196.548L2.30034 176.476H36.4478L47 144Z" fill="#8482B2"/>
<path d="M47 288L57.5522 320.476H91.6997L64.0737 340.548L74.6259 373.024L47 352.952L19.3741 373.024L29.9263 340.548L2.30034 320.476H36.4478L47 288Z" fill="#9B5074"/>
<path d="M47 432L57.5522 464.476H91.6997L64.0737 484.548L74.6259 517.024L47 496.952L19.3741 517.024L29.9263 484.548L2.30034 464.476H36.4478L47 432Z" fill="#FFE8B3"/>
</svg>
