<svg width="1440" height="755" viewBox="0 0 1440 755" fill="none" xmlns="http://www.w3.org/2000/svg">
<g filter="url(#filter0_d_99_47)">
<circle cx="736.5" cy="305.5" r="255.5" fill="#FFE8B3"/>
</g>
<g filter="url(#filter1_d_99_47)">
<path d="M115 578L124.549 611.46L158.301 603L134.098 628L158.301 653L124.549 644.54L115 678L105.451 644.54L71.6987 653L95.9017 628L71.6987 603L105.451 611.46L115 578Z" fill="#FFE8B3"/>
</g>
<g filter="url(#filter2_d_99_47)">
<path d="M173 713L177.321 724.679L189 729L177.321 733.321L173 745L168.679 733.321L157 729L168.679 724.679L173 713Z" fill="#FFE8B3"/>
</g>
<g filter="url(#filter3_d_99_47)">
<path d="M1351 94L1360.55 127.46L1394.3 119L1370.1 144L1394.3 169L1360.55 160.54L1351 194L1341.45 160.54L1307.7 169L1331.9 144L1307.7 119L1341.45 127.46L1351 94Z" fill="#FFE8B3"/>
</g>
<path d="M262 165C285.472 165 309 180.79 309 201.5C309 222.211 280.472 237.5 257 237.5C253.83 237.5 250.914 237.218 248.241 236.685C247.184 237.158 246.102 237.591 245 237.983V231.675C245.885 231.984 246.813 232.257 247.785 232.491C260.442 226.329 269 213.98 269 202C269 189.121 259.145 175.601 245 169.854V165.578C245.133 165.626 245.266 165.673 245.398 165.723C250 165.248 255.482 165 262 165ZM262 169C258.563 169 255.443 169.073 252.614 169.207C264.839 176.537 273 189.341 273 202C273 214.084 265.563 226.105 254.253 233.42C255.14 233.472 256.056 233.5 257 233.5C267.961 233.5 280.218 229.902 289.653 223.893C299.178 217.826 305 209.893 305 201.5C305 192.766 300.041 184.717 291.92 178.696C284.058 172.867 273.571 169.232 263.021 169.011L262 169Z" fill="#FFE8B3"/>
<path d="M262 165C285.472 165 309 180.79 309 201.5C309 222.211 280.472 237.5 257 237.5C253.83 237.5 250.914 237.218 248.241 236.685C247.184 237.158 246.102 237.591 245 237.983V231.675C245.885 231.984 246.813 232.257 247.785 232.491C260.442 226.329 269 213.98 269 202C269 189.121 259.145 175.601 245 169.854V165.578C245.133 165.626 245.266 165.673 245.398 165.723C250 165.248 255.482 165 262 165ZM262 169C258.563 169 255.443 169.073 252.614 169.207C264.839 176.537 273 189.341 273 202C273 214.084 265.563 226.105 254.253 233.42C255.14 233.472 256.056 233.5 257 233.5C267.961 233.5 280.218 229.902 289.653 223.893C299.178 217.826 305 209.893 305 201.5C305 192.766 300.041 184.717 291.92 178.696C284.058 172.867 273.571 169.232 263.021 169.011L262 169Z" fill="#FFE8B3"/>
<path d="M262 165C285.472 165 309 180.79 309 201.5C309 222.211 280.472 237.5 257 237.5C253.83 237.5 250.914 237.218 248.241 236.685C247.184 237.158 246.102 237.591 245 237.983V231.675C245.885 231.984 246.813 232.257 247.785 232.491C260.442 226.329 269 213.98 269 202C269 189.121 259.145 175.601 245 169.854V165.578C245.133 165.626 245.266 165.673 245.398 165.723C250 165.248 255.482 165 262 165ZM262 169C258.563 169 255.443 169.073 252.614 169.207C264.839 176.537 273 189.341 273 202C273 214.084 265.563 226.105 254.253 233.42C255.14 233.472 256.056 233.5 257 233.5C267.961 233.5 280.218 229.902 289.653 223.893C299.178 217.826 305 209.893 305 201.5C305 192.766 300.041 184.717 291.92 178.696C284.058 172.867 273.571 169.232 263.021 169.011L262 169Z" fill="#FFE8B3"/>
<path d="M262 165C285.472 165 309 180.79 309 201.5C309 222.211 280.472 237.5 257 237.5C253.83 237.5 250.914 237.218 248.241 236.685C247.184 237.158 246.102 237.591 245 237.983V231.675C245.885 231.984 246.813 232.257 247.785 232.491C260.442 226.329 269 213.98 269 202C269 189.121 259.145 175.601 245 169.854V165.578C245.133 165.626 245.266 165.673 245.398 165.723C250 165.248 255.482 165 262 165ZM262 169C258.563 169 255.443 169.073 252.614 169.207C264.839 176.537 273 189.341 273 202C273 214.084 265.563 226.105 254.253 233.42C255.14 233.472 256.056 233.5 257 233.5C267.961 233.5 280.218 229.902 289.653 223.893C299.178 217.826 305 209.893 305 201.5C305 192.766 300.041 184.717 291.92 178.696C284.058 172.867 273.571 169.232 263.021 169.011L262 169Z" fill="#FFE8B3"/>
<path d="M139 233C115.528 233 92.0003 248.79 92 269.5C92 290.211 120.528 305.5 144 305.5C147.17 305.5 150.086 305.218 152.759 304.685C153.816 305.158 154.898 305.591 156 305.983V299.675C155.115 299.984 154.187 300.257 153.215 300.491C140.558 294.329 132 281.98 132 270C132 257.121 141.855 243.601 156 237.854V233.578C155.867 233.626 155.734 233.673 155.602 233.723C151 233.248 145.518 233 139 233ZM139 237C142.437 237 145.557 237.073 148.386 237.207C136.161 244.537 128 257.341 128 270C128 282.084 135.437 294.105 146.747 301.42C145.86 301.472 144.944 301.5 144 301.5C133.039 301.5 120.782 297.902 111.347 291.893C101.822 285.826 96 277.893 96 269.5C96.0001 260.766 100.959 252.717 109.08 246.696C116.942 240.867 127.429 237.232 137.979 237.011L139 237Z" fill="#FFE8B3"/>
<path d="M139 233C115.528 233 92.0003 248.79 92 269.5C92 290.211 120.528 305.5 144 305.5C147.17 305.5 150.086 305.218 152.759 304.685C153.816 305.158 154.898 305.591 156 305.983V299.675C155.115 299.984 154.187 300.257 153.215 300.491C140.558 294.329 132 281.98 132 270C132 257.121 141.855 243.601 156 237.854V233.578C155.867 233.626 155.734 233.673 155.602 233.723C151 233.248 145.518 233 139 233ZM139 237C142.437 237 145.557 237.073 148.386 237.207C136.161 244.537 128 257.341 128 270C128 282.084 135.437 294.105 146.747 301.42C145.86 301.472 144.944 301.5 144 301.5C133.039 301.5 120.782 297.902 111.347 291.893C101.822 285.826 96 277.893 96 269.5C96.0001 260.766 100.959 252.717 109.08 246.696C116.942 240.867 127.429 237.232 137.979 237.011L139 237Z" fill="#FFE8B3"/>
<path d="M139 233C115.528 233 92.0003 248.79 92 269.5C92 290.211 120.528 305.5 144 305.5C147.17 305.5 150.086 305.218 152.759 304.685C153.816 305.158 154.898 305.591 156 305.983V299.675C155.115 299.984 154.187 300.257 153.215 300.491C140.558 294.329 132 281.98 132 270C132 257.121 141.855 243.601 156 237.854V233.578C155.867 233.626 155.734 233.673 155.602 233.723C151 233.248 145.518 233 139 233ZM139 237C142.437 237 145.557 237.073 148.386 237.207C136.161 244.537 128 257.341 128 270C128 282.084 135.437 294.105 146.747 301.42C145.86 301.472 144.944 301.5 144 301.5C133.039 301.5 120.782 297.902 111.347 291.893C101.822 285.826 96 277.893 96 269.5C96.0001 260.766 100.959 252.717 109.08 246.696C116.942 240.867 127.429 237.232 137.979 237.011L139 237Z" fill="#FFE8B3"/>
<path d="M139 233C115.528 233 92.0003 248.79 92 269.5C92 290.211 120.528 305.5 144 305.5C147.17 305.5 150.086 305.218 152.759 304.685C153.816 305.158 154.898 305.591 156 305.983V299.675C155.115 299.984 154.187 300.257 153.215 300.491C140.558 294.329 132 281.98 132 270C132 257.121 141.855 243.601 156 237.854V233.578C155.867 233.626 155.734 233.673 155.602 233.723C151 233.248 145.518 233 139 233ZM139 237C142.437 237 145.557 237.073 148.386 237.207C136.161 244.537 128 257.341 128 270C128 282.084 135.437 294.105 146.747 301.42C145.86 301.472 144.944 301.5 144 301.5C133.039 301.5 120.782 297.902 111.347 291.893C101.822 285.826 96 277.893 96 269.5C96.0001 260.766 100.959 252.717 109.08 246.696C116.942 240.867 127.429 237.232 137.979 237.011L139 237Z" fill="#FFE8B3"/>
<line y1="-2" x2="541" y2="-2" transform="matrix(-1 0 0 1 245 170)" stroke="#FFE8B3" stroke-width="4"/>
<line x1="249" y1="235" x2="155" y2="235" stroke="#FFE8B3" stroke-width="4"/>
<line x1="238" y1="303" x2="155" y2="303" stroke="#FFE8B3" stroke-width="4"/>
<line x1="206" y1="147" x2="-214" y2="147" stroke="#FFE8B3" stroke-width="6"/>
<path d="M1154 421C1130.53 421 1107 436.79 1107 457.5C1107 478.211 1135.53 493.5 1159 493.5C1162.17 493.5 1165.09 493.218 1167.76 492.685C1168.82 493.158 1169.9 493.591 1171 493.983V487.675C1170.11 487.984 1169.19 488.257 1168.21 488.491C1155.56 482.329 1147 469.98 1147 458C1147 445.121 1156.85 431.601 1171 425.854V421.578C1170.87 421.626 1170.73 421.673 1170.6 421.723C1166 421.248 1160.52 421 1154 421ZM1154 425C1157.44 425 1160.56 425.073 1163.39 425.207C1151.16 432.537 1143 445.341 1143 458C1143 470.084 1150.44 482.105 1161.75 489.42C1160.86 489.472 1159.94 489.5 1159 489.5C1148.04 489.5 1135.78 485.902 1126.35 479.893C1116.82 473.826 1111 465.893 1111 457.5C1111 448.766 1115.96 440.717 1124.08 434.696C1131.94 428.867 1142.43 425.232 1152.98 425.011L1154 425Z" fill="#FFE8B3"/>
<path d="M1154 421C1130.53 421 1107 436.79 1107 457.5C1107 478.211 1135.53 493.5 1159 493.5C1162.17 493.5 1165.09 493.218 1167.76 492.685C1168.82 493.158 1169.9 493.591 1171 493.983V487.675C1170.11 487.984 1169.19 488.257 1168.21 488.491C1155.56 482.329 1147 469.98 1147 458C1147 445.121 1156.85 431.601 1171 425.854V421.578C1170.87 421.626 1170.73 421.673 1170.6 421.723C1166 421.248 1160.52 421 1154 421ZM1154 425C1157.44 425 1160.56 425.073 1163.39 425.207C1151.16 432.537 1143 445.341 1143 458C1143 470.084 1150.44 482.105 1161.75 489.42C1160.86 489.472 1159.94 489.5 1159 489.5C1148.04 489.5 1135.78 485.902 1126.35 479.893C1116.82 473.826 1111 465.893 1111 457.5C1111 448.766 1115.96 440.717 1124.08 434.696C1131.94 428.867 1142.43 425.232 1152.98 425.011L1154 425Z" fill="#FFE8B3"/>
<path d="M1154 421C1130.53 421 1107 436.79 1107 457.5C1107 478.211 1135.53 493.5 1159 493.5C1162.17 493.5 1165.09 493.218 1167.76 492.685C1168.82 493.158 1169.9 493.591 1171 493.983V487.675C1170.11 487.984 1169.19 488.257 1168.21 488.491C1155.56 482.329 1147 469.98 1147 458C1147 445.121 1156.85 431.601 1171 425.854V421.578C1170.87 421.626 1170.73 421.673 1170.6 421.723C1166 421.248 1160.52 421 1154 421ZM1154 425C1157.44 425 1160.56 425.073 1163.39 425.207C1151.16 432.537 1143 445.341 1143 458C1143 470.084 1150.44 482.105 1161.75 489.42C1160.86 489.472 1159.94 489.5 1159 489.5C1148.04 489.5 1135.78 485.902 1126.35 479.893C1116.82 473.826 1111 465.893 1111 457.5C1111 448.766 1115.96 440.717 1124.08 434.696C1131.94 428.867 1142.43 425.232 1152.98 425.011L1154 425Z" fill="#FFE8B3"/>
<path d="M1154 421C1130.53 421 1107 436.79 1107 457.5C1107 478.211 1135.53 493.5 1159 493.5C1162.17 493.5 1165.09 493.218 1167.76 492.685C1168.82 493.158 1169.9 493.591 1171 493.983V487.675C1170.11 487.984 1169.19 488.257 1168.21 488.491C1155.56 482.329 1147 469.98 1147 458C1147 445.121 1156.85 431.601 1171 425.854V421.578C1170.87 421.626 1170.73 421.673 1170.6 421.723C1166 421.248 1160.52 421 1154 421ZM1154 425C1157.44 425 1160.56 425.073 1163.39 425.207C1151.16 432.537 1143 445.341 1143 458C1143 470.084 1150.44 482.105 1161.75 489.42C1160.86 489.472 1159.94 489.5 1159 489.5C1148.04 489.5 1135.78 485.902 1126.35 479.893C1116.82 473.826 1111 465.893 1111 457.5C1111 448.766 1115.96 440.717 1124.08 434.696C1131.94 428.867 1142.43 425.232 1152.98 425.011L1154 425Z" fill="#FFE8B3"/>
<path d="M1344 487C1367.47 487 1391 502.79 1391 523.5C1391 544.211 1362.47 559.5 1339 559.5C1335.83 559.5 1332.91 559.218 1330.24 558.685C1329.18 559.158 1328.1 559.591 1327 559.983V553.675C1327.89 553.984 1328.81 554.257 1329.79 554.491C1342.44 548.329 1351 535.98 1351 524C1351 511.121 1341.15 497.601 1327 491.854V487.578C1327.13 487.626 1327.27 487.673 1327.4 487.723C1332 487.248 1337.48 487 1344 487ZM1344 491C1340.56 491 1337.44 491.073 1334.61 491.207C1346.84 498.537 1355 511.341 1355 524C1355 536.084 1347.56 548.105 1336.25 555.42C1337.14 555.472 1338.06 555.5 1339 555.5C1349.96 555.5 1362.22 551.902 1371.65 545.893C1381.18 539.826 1387 531.893 1387 523.5C1387 514.766 1382.04 506.717 1373.92 500.696C1366.06 494.867 1355.57 491.232 1345.02 491.011L1344 491Z" fill="#FFE8B3"/>
<path d="M1344 487C1367.47 487 1391 502.79 1391 523.5C1391 544.211 1362.47 559.5 1339 559.5C1335.83 559.5 1332.91 559.218 1330.24 558.685C1329.18 559.158 1328.1 559.591 1327 559.983V553.675C1327.89 553.984 1328.81 554.257 1329.79 554.491C1342.44 548.329 1351 535.98 1351 524C1351 511.121 1341.15 497.601 1327 491.854V487.578C1327.13 487.626 1327.27 487.673 1327.4 487.723C1332 487.248 1337.48 487 1344 487ZM1344 491C1340.56 491 1337.44 491.073 1334.61 491.207C1346.84 498.537 1355 511.341 1355 524C1355 536.084 1347.56 548.105 1336.25 555.42C1337.14 555.472 1338.06 555.5 1339 555.5C1349.96 555.5 1362.22 551.902 1371.65 545.893C1381.18 539.826 1387 531.893 1387 523.5C1387 514.766 1382.04 506.717 1373.92 500.696C1366.06 494.867 1355.57 491.232 1345.02 491.011L1344 491Z" fill="#FFE8B3"/>
<path d="M1344 487C1367.47 487 1391 502.79 1391 523.5C1391 544.211 1362.47 559.5 1339 559.5C1335.83 559.5 1332.91 559.218 1330.24 558.685C1329.18 559.158 1328.1 559.591 1327 559.983V553.675C1327.89 553.984 1328.81 554.257 1329.79 554.491C1342.44 548.329 1351 535.98 1351 524C1351 511.121 1341.15 497.601 1327 491.854V487.578C1327.13 487.626 1327.27 487.673 1327.4 487.723C1332 487.248 1337.48 487 1344 487ZM1344 491C1340.56 491 1337.44 491.073 1334.61 491.207C1346.84 498.537 1355 511.341 1355 524C1355 536.084 1347.56 548.105 1336.25 555.42C1337.14 555.472 1338.06 555.5 1339 555.5C1349.96 555.5 1362.22 551.902 1371.65 545.893C1381.18 539.826 1387 531.893 1387 523.5C1387 514.766 1382.04 506.717 1373.92 500.696C1366.06 494.867 1355.57 491.232 1345.02 491.011L1344 491Z" fill="#FFE8B3"/>
<path d="M1344 487C1367.47 487 1391 502.79 1391 523.5C1391 544.211 1362.47 559.5 1339 559.5C1335.83 559.5 1332.91 559.218 1330.24 558.685C1329.18 559.158 1328.1 559.591 1327 559.983V553.675C1327.89 553.984 1328.81 554.257 1329.79 554.491C1342.44 548.329 1351 535.98 1351 524C1351 511.121 1341.15 497.601 1327 491.854V487.578C1327.13 487.626 1327.27 487.673 1327.4 487.723C1332 487.248 1337.48 487 1344 487ZM1344 491C1340.56 491 1337.44 491.073 1334.61 491.207C1346.84 498.537 1355 511.341 1355 524C1355 536.084 1347.56 548.105 1336.25 555.42C1337.14 555.472 1338.06 555.5 1339 555.5C1349.96 555.5 1362.22 551.902 1371.65 545.893C1381.18 539.826 1387 531.893 1387 523.5C1387 514.766 1382.04 506.717 1373.92 500.696C1366.06 494.867 1355.57 491.232 1345.02 491.011L1344 491Z" fill="#FFE8B3"/>
<path d="M1210 555C1186.53 555 1163 570.79 1163 591.5C1163 612.211 1191.53 627.5 1215 627.5C1218.17 627.5 1221.09 627.218 1223.76 626.685C1224.82 627.158 1225.9 627.591 1227 627.983V621.675C1226.11 621.984 1225.19 622.257 1224.21 622.491C1211.56 616.329 1203 603.98 1203 592C1203 579.121 1212.85 565.601 1227 559.854V555.578C1226.87 555.626 1226.73 555.673 1226.6 555.723C1222 555.248 1216.52 555 1210 555ZM1210 559C1213.44 559 1216.56 559.073 1219.39 559.207C1207.16 566.537 1199 579.341 1199 592C1199 604.084 1206.44 616.105 1217.75 623.42C1216.86 623.472 1215.94 623.5 1215 623.5C1204.04 623.5 1191.78 619.902 1182.35 613.893C1172.82 607.826 1167 599.893 1167 591.5C1167 582.766 1171.96 574.717 1180.08 568.696C1187.94 562.867 1198.43 559.232 1208.98 559.011L1210 559Z" fill="#FFE8B3"/>
<path d="M1210 555C1186.53 555 1163 570.79 1163 591.5C1163 612.211 1191.53 627.5 1215 627.5C1218.17 627.5 1221.09 627.218 1223.76 626.685C1224.82 627.158 1225.9 627.591 1227 627.983V621.675C1226.11 621.984 1225.19 622.257 1224.21 622.491C1211.56 616.329 1203 603.98 1203 592C1203 579.121 1212.85 565.601 1227 559.854V555.578C1226.87 555.626 1226.73 555.673 1226.6 555.723C1222 555.248 1216.52 555 1210 555ZM1210 559C1213.44 559 1216.56 559.073 1219.39 559.207C1207.16 566.537 1199 579.341 1199 592C1199 604.084 1206.44 616.105 1217.75 623.42C1216.86 623.472 1215.94 623.5 1215 623.5C1204.04 623.5 1191.78 619.902 1182.35 613.893C1172.82 607.826 1167 599.893 1167 591.5C1167 582.766 1171.96 574.717 1180.08 568.696C1187.94 562.867 1198.43 559.232 1208.98 559.011L1210 559Z" fill="#FFE8B3"/>
<path d="M1210 555C1186.53 555 1163 570.79 1163 591.5C1163 612.211 1191.53 627.5 1215 627.5C1218.17 627.5 1221.09 627.218 1223.76 626.685C1224.82 627.158 1225.9 627.591 1227 627.983V621.675C1226.11 621.984 1225.19 622.257 1224.21 622.491C1211.56 616.329 1203 603.98 1203 592C1203 579.121 1212.85 565.601 1227 559.854V555.578C1226.87 555.626 1226.73 555.673 1226.6 555.723C1222 555.248 1216.52 555 1210 555ZM1210 559C1213.44 559 1216.56 559.073 1219.39 559.207C1207.16 566.537 1199 579.341 1199 592C1199 604.084 1206.44 616.105 1217.75 623.42C1216.86 623.472 1215.94 623.5 1215 623.5C1204.04 623.5 1191.78 619.902 1182.35 613.893C1172.82 607.826 1167 599.893 1167 591.5C1167 582.766 1171.96 574.717 1180.08 568.696C1187.94 562.867 1198.43 559.232 1208.98 559.011L1210 559Z" fill="#FFE8B3"/>
<path d="M1210 555C1186.53 555 1163 570.79 1163 591.5C1163 612.211 1191.53 627.5 1215 627.5C1218.17 627.5 1221.09 627.218 1223.76 626.685C1224.82 627.158 1225.9 627.591 1227 627.983V621.675C1226.11 621.984 1225.19 622.257 1224.21 622.491C1211.56 616.329 1203 603.98 1203 592C1203 579.121 1212.85 565.601 1227 559.854V555.578C1226.87 555.626 1226.73 555.673 1226.6 555.723C1222 555.248 1216.52 555 1210 555ZM1210 559C1213.44 559 1216.56 559.073 1219.39 559.207C1207.16 566.537 1199 579.341 1199 592C1199 604.084 1206.44 616.105 1217.75 623.42C1216.86 623.472 1215.94 623.5 1215 623.5C1204.04 623.5 1191.78 619.902 1182.35 613.893C1172.82 607.826 1167 599.893 1167 591.5C1167 582.766 1171.96 574.717 1180.08 568.696C1187.94 562.867 1198.43 559.232 1208.98 559.011L1210 559Z" fill="#FFE8B3"/>
<line y1="-2" x2="541" y2="-2" transform="matrix(-1 0 0 1 1695 425)" stroke="#FFE8B3" stroke-width="4"/>
<line x1="1634" y1="407" x2="1214" y2="407" stroke="#FFE8B3" stroke-width="6"/>
<line x1="1327" y1="491" x2="1171" y2="491" stroke="#FFE8B3" stroke-width="4"/>
<line x1="1327" y1="557" x2="1223" y2="557" stroke="#FFE8B3" stroke-width="4"/>
<line x1="1284" y1="624" x2="1223" y2="624" stroke="#FFE8B3" stroke-width="4"/>
<defs>
<filter id="filter0_d_99_47" x="431" y="0" width="611" height="611" filterUnits="userSpaceOnUse" color-interpolation-filters="sRGB">
<feFlood flood-opacity="0" result="BackgroundImageFix"/>
<feColorMatrix in="SourceAlpha" type="matrix" values="0 0 0 0 0 0 0 0 0 0 0 0 0 0 0 0 0 0 127 0" result="hardAlpha"/>
<feOffset/>
<feGaussianBlur stdDeviation="25"/>
<feComposite in2="hardAlpha" operator="out"/>
<feColorMatrix type="matrix" values="0 0 0 0 1 0 0 0 0 0.911154 0 0 0 0 0.703846 0 0 0 1 0"/>
<feBlend mode="normal" in2="BackgroundImageFix" result="effect1_dropShadow_99_47"/>
<feBlend mode="normal" in="SourceGraphic" in2="effect1_dropShadow_99_47" result="shape"/>
</filter>
<filter id="filter1_d_99_47" x="61.6987" y="568" width="106.603" height="120" filterUnits="userSpaceOnUse" color-interpolation-filters="sRGB">
<feFlood flood-opacity="0" result="BackgroundImageFix"/>
<feColorMatrix in="SourceAlpha" type="matrix" values="0 0 0 0 0 0 0 0 0 0 0 0 0 0 0 0 0 0 127 0" result="hardAlpha"/>
<feOffset/>
<feGaussianBlur stdDeviation="5"/>
<feComposite in2="hardAlpha" operator="out"/>
<feColorMatrix type="matrix" values="0 0 0 0 1 0 0 0 0 0.911154 0 0 0 0 0.703846 0 0 0 1 0"/>
<feBlend mode="normal" in2="BackgroundImageFix" result="effect1_dropShadow_99_47"/>
<feBlend mode="normal" in="SourceGraphic" in2="effect1_dropShadow_99_47" result="shape"/>
</filter>
<filter id="filter2_d_99_47" x="147" y="703" width="52" height="52" filterUnits="userSpaceOnUse" color-interpolation-filters="sRGB">
<feFlood flood-opacity="0" result="BackgroundImageFix"/>
<feColorMatrix in="SourceAlpha" type="matrix" values="0 0 0 0 0 0 0 0 0 0 0 0 0 0 0 0 0 0 127 0" result="hardAlpha"/>
<feOffset/>
<feGaussianBlur stdDeviation="5"/>
<feComposite in2="hardAlpha" operator="out"/>
<feColorMatrix type="matrix" values="0 0 0 0 1 0 0 0 0 0.911154 0 0 0 0 0.703846 0 0 0 1 0"/>
<feBlend mode="normal" in2="BackgroundImageFix" result="effect1_dropShadow_99_47"/>
<feBlend mode="normal" in="SourceGraphic" in2="effect1_dropShadow_99_47" result="shape"/>
</filter>
<filter id="filter3_d_99_47" x="1297.7" y="84" width="106.603" height="120" filterUnits="userSpaceOnUse" color-interpolation-filters="sRGB">
<feFlood flood-opacity="0" result="BackgroundImageFix"/>
<feColorMatrix in="SourceAlpha" type="matrix" values="0 0 0 0 0 0 0 0 0 0 0 0 0 0 0 0 0 0 127 0" result="hardAlpha"/>
<feOffset/>
<feGaussianBlur stdDeviation="5"/>
<feComposite in2="hardAlpha" operator="out"/>
<feColorMatrix type="matrix" values="0 0 0 0 1 0 0 0 0 0.911154 0 0 0 0 0.703846 0 0 0 1 0"/>
<feBlend mode="normal" in2="BackgroundImageFix" result="effect1_dropShadow_99_47"/>
<feBlend mode="normal" in="SourceGraphic" in2="effect1_dropShadow_99_47" result="shape"/>
</filter>
</defs>
</svg>
