<svg width="1443" height="738" viewBox="0 0 1443 738" fill="none" xmlns="http://www.w3.org/2000/svg">
<g filter="url(#filter0_d_147_84)">
<circle cx="726.5" cy="305.5" r="255.5" fill="#FFE8B3"/>
</g>
<g filter="url(#filter1_d_147_84)">
<path d="M117 561L126.549 594.46L160.301 586L136.098 611L160.301 636L126.549 627.54L117 661L107.451 627.54L73.6987 636L97.9017 611L73.6987 586L107.451 594.46L117 561Z" fill="#FFE8B3"/>
</g>
<g filter="url(#filter2_d_147_84)">
<path d="M175 696L179.321 707.679L191 712L179.321 716.321L175 728L170.679 716.321L159 712L170.679 707.679L175 696Z" fill="#FFE8B3"/>
</g>
<g filter="url(#filter3_d_147_84)">
<path d="M1353 77L1362.55 110.46L1396.3 102L1372.1 127L1396.3 152L1362.55 143.54L1353 177L1343.45 143.54L1309.7 152L1333.9 127L1309.7 102L1343.45 110.46L1353 77Z" fill="#FFE8B3"/>
</g>
<line x1="247" y1="152" y2="152" stroke="#FFE8B3" stroke-width="4"/>
<line x1="247" y1="218" x2="153" y2="218" stroke="#FFE8B3" stroke-width="4"/>
<line x1="236" y1="284" x2="153" y2="284" stroke="#FFE8B3" stroke-width="4"/>
<line x1="208" y1="130" x2="-2.62268e-07" y2="130" stroke="#FFE8B3" stroke-width="6"/>
<line x1="1443" y1="406" x2="1157" y2="406" stroke="#FFE8B3" stroke-width="4"/>
<line x1="1443" y1="390" x2="1216" y2="390" stroke="#FFE8B3" stroke-width="6"/>
<line x1="1329" y1="472" x2="1157" y2="472" stroke="#FFE8B3" stroke-width="4"/>
<line x1="1329" y1="538" x2="1225" y2="538" stroke="#FFE8B3" stroke-width="4"/>
<line x1="1288" y1="604" x2="1227" y2="604" stroke="#FFE8B3" stroke-width="4"/>
<path d="M243.5 218.042C243.5 218.042 277 220.042 277 185.042C277 150.042 243.5 152.042 243.5 152.042" stroke="#FFE8B3" stroke-width="4"/>
<path d="M217 218.021C217 218.021 250.5 220.021 250.5 185.021C250.5 150.021 217 152.021 217 152.021" stroke="#FFE8B3" stroke-width="4"/>
<path d="M1328.5 538.042C1328.5 538.042 1362 540.042 1362 505.042C1362 470.042 1328.5 472.042 1328.5 472.042" stroke="#FFE8B3" stroke-width="4"/>
<path d="M1302 538.021C1302 538.021 1335.5 540.021 1335.5 505.021C1335.5 470.021 1302 472.021 1302 472.021" stroke="#FFE8B3" stroke-width="4"/>
<path d="M1159.5 472.042C1159.5 472.042 1126 474.042 1126 439.042C1126 404.042 1159.5 406.042 1159.5 406.042" stroke="#FFE8B3" stroke-width="4"/>
<path d="M1186 472.021C1186 472.021 1152.5 474.021 1152.5 439.021C1152.5 404.021 1186 406.021 1186 406.021" stroke="#FFE8B3" stroke-width="4"/>
<path d="M1228.5 604.042C1228.5 604.042 1195 606.042 1195 571.042C1195 536.042 1228.5 538.042 1228.5 538.042" stroke="#FFE8B3" stroke-width="4"/>
<path d="M1255 604.021C1255 604.021 1221.5 606.021 1221.5 571.021C1221.5 536.021 1255 538.021 1255 538.021" stroke="#FFE8B3" stroke-width="4"/>
<path d="M156.5 284.042C156.5 284.042 123 286.042 123 251.042C123 216.042 156.5 218.042 156.5 218.042" stroke="#FFE8B3" stroke-width="4"/>
<path d="M183 284.021C183 284.021 149.5 286.021 149.5 251.021C149.5 216.021 183 218.021 183 218.021" stroke="#FFE8B3" stroke-width="4"/>
<defs>
<filter id="filter0_d_147_84" x="421" y="0" width="611" height="611" filterUnits="userSpaceOnUse" color-interpolation-filters="sRGB">
<feFlood flood-opacity="0" result="BackgroundImageFix"/>
<feColorMatrix in="SourceAlpha" type="matrix" values="0 0 0 0 0 0 0 0 0 0 0 0 0 0 0 0 0 0 127 0" result="hardAlpha"/>
<feOffset/>
<feGaussianBlur stdDeviation="25"/>
<feComposite in2="hardAlpha" operator="out"/>
<feColorMatrix type="matrix" values="0 0 0 0 1 0 0 0 0 0.911154 0 0 0 0 0.703846 0 0 0 1 0"/>
<feBlend mode="normal" in2="BackgroundImageFix" result="effect1_dropShadow_147_84"/>
<feBlend mode="normal" in="SourceGraphic" in2="effect1_dropShadow_147_84" result="shape"/>
</filter>
<filter id="filter1_d_147_84" x="63.6987" y="551" width="106.603" height="120" filterUnits="userSpaceOnUse" color-interpolation-filters="sRGB">
<feFlood flood-opacity="0" result="BackgroundImageFix"/>
<feColorMatrix in="SourceAlpha" type="matrix" values="0 0 0 0 0 0 0 0 0 0 0 0 0 0 0 0 0 0 127 0" result="hardAlpha"/>
<feOffset/>
<feGaussianBlur stdDeviation="5"/>
<feComposite in2="hardAlpha" operator="out"/>
<feColorMatrix type="matrix" values="0 0 0 0 1 0 0 0 0 0.911154 0 0 0 0 0.703846 0 0 0 1 0"/>
<feBlend mode="normal" in2="BackgroundImageFix" result="effect1_dropShadow_147_84"/>
<feBlend mode="normal" in="SourceGraphic" in2="effect1_dropShadow_147_84" result="shape"/>
</filter>
<filter id="filter2_d_147_84" x="149" y="686" width="52" height="52" filterUnits="userSpaceOnUse" color-interpolation-filters="sRGB">
<feFlood flood-opacity="0" result="BackgroundImageFix"/>
<feColorMatrix in="SourceAlpha" type="matrix" values="0 0 0 0 0 0 0 0 0 0 0 0 0 0 0 0 0 0 127 0" result="hardAlpha"/>
<feOffset/>
<feGaussianBlur stdDeviation="5"/>
<feComposite in2="hardAlpha" operator="out"/>
<feColorMatrix type="matrix" values="0 0 0 0 1 0 0 0 0 0.911154 0 0 0 0 0.703846 0 0 0 1 0"/>
<feBlend mode="normal" in2="BackgroundImageFix" result="effect1_dropShadow_147_84"/>
<feBlend mode="normal" in="SourceGraphic" in2="effect1_dropShadow_147_84" result="shape"/>
</filter>
<filter id="filter3_d_147_84" x="1299.7" y="67" width="106.603" height="120" filterUnits="userSpaceOnUse" color-interpolation-filters="sRGB">
<feFlood flood-opacity="0" result="BackgroundImageFix"/>
<feColorMatrix in="SourceAlpha" type="matrix" values="0 0 0 0 0 0 0 0 0 0 0 0 0 0 0 0 0 0 127 0" result="hardAlpha"/>
<feOffset/>
<feGaussianBlur stdDeviation="5"/>
<feComposite in2="hardAlpha" operator="out"/>
<feColorMatrix type="matrix" values="0 0 0 0 1 0 0 0 0 0.911154 0 0 0 0 0.703846 0 0 0 1 0"/>
<feBlend mode="normal" in2="BackgroundImageFix" result="effect1_dropShadow_147_84"/>
<feBlend mode="normal" in="SourceGraphic" in2="effect1_dropShadow_147_84" result="shape"/>
</filter>
</defs>
</svg>
