<svg width="2342" height="611" viewBox="0 0 2342 611" fill="none" xmlns="http://www.w3.org/2000/svg">
<g filter="url(#filter0_d_128_50)">
<circle cx="1131.5" cy="305.5" r="255.5" fill="#FFE8B3"/>
</g>
<g filter="url(#filter1_d_128_50)">
<path d="M534.501 377L544.05 410.46L577.802 402L553.599 427L577.802 452L544.05 443.54L534.501 477L524.952 443.54L491.2 452L515.403 427L491.2 402L524.952 410.46L534.501 377Z" fill="#FFE8B3"/>
</g>
<g filter="url(#filter2_d_128_50)">
<path d="M600.501 523L604.822 534.679L616.501 539L604.822 543.321L600.501 555L596.18 543.321L584.501 539L596.18 534.679L600.501 523Z" fill="#FFE8B3"/>
</g>
<g filter="url(#filter3_d_128_50)">
<path d="M1778.5 50L1788.05 83.4604L1821.8 75L1797.6 100L1821.8 125L1788.05 116.54L1778.5 150L1768.95 116.54L1735.2 125L1759.4 100L1735.2 75L1768.95 83.4604L1778.5 50Z" fill="#FFE8B3"/>
</g>
<path d="M689.501 121C712.973 121 736.501 136.79 736.501 157.5C736.501 178.211 707.973 193.5 684.501 193.5C681.331 193.5 678.415 193.218 675.742 192.685C674.685 193.158 673.603 193.591 672.501 193.983V187.675C673.386 187.984 674.314 188.257 675.286 188.491C687.943 182.329 696.501 169.98 696.501 158C696.501 145.121 686.646 131.601 672.501 125.854V121.578C672.634 121.626 672.767 121.673 672.899 121.723C677.501 121.248 682.983 121 689.501 121ZM689.501 125C686.064 125 682.944 125.073 680.115 125.207C692.34 132.537 700.501 145.341 700.501 158C700.501 170.084 693.064 182.105 681.754 189.42C682.641 189.472 683.557 189.5 684.501 189.5C695.462 189.5 707.719 185.902 717.154 179.893C726.679 173.826 732.501 165.893 732.501 157.5C732.501 148.766 727.542 140.717 719.421 134.696C711.559 128.867 701.072 125.232 690.522 125.011L689.501 125Z" fill="#FFE8B3"/>
<path d="M689.501 121C712.973 121 736.501 136.79 736.501 157.5C736.501 178.211 707.973 193.5 684.501 193.5C681.331 193.5 678.415 193.218 675.742 192.685C674.685 193.158 673.603 193.591 672.501 193.983V187.675C673.386 187.984 674.314 188.257 675.286 188.491C687.943 182.329 696.501 169.98 696.501 158C696.501 145.121 686.646 131.601 672.501 125.854V121.578C672.634 121.626 672.767 121.673 672.899 121.723C677.501 121.248 682.983 121 689.501 121ZM689.501 125C686.064 125 682.944 125.073 680.115 125.207C692.34 132.537 700.501 145.341 700.501 158C700.501 170.084 693.064 182.105 681.754 189.42C682.641 189.472 683.557 189.5 684.501 189.5C695.462 189.5 707.719 185.902 717.154 179.893C726.679 173.826 732.501 165.893 732.501 157.5C732.501 148.766 727.542 140.717 719.421 134.696C711.559 128.867 701.072 125.232 690.522 125.011L689.501 125Z" fill="#FFE8B3"/>
<path d="M689.501 121C712.973 121 736.501 136.79 736.501 157.5C736.501 178.211 707.973 193.5 684.501 193.5C681.331 193.5 678.415 193.218 675.742 192.685C674.685 193.158 673.603 193.591 672.501 193.983V187.675C673.386 187.984 674.314 188.257 675.286 188.491C687.943 182.329 696.501 169.98 696.501 158C696.501 145.121 686.646 131.601 672.501 125.854V121.578C672.634 121.626 672.767 121.673 672.899 121.723C677.501 121.248 682.983 121 689.501 121ZM689.501 125C686.064 125 682.944 125.073 680.115 125.207C692.34 132.537 700.501 145.341 700.501 158C700.501 170.084 693.064 182.105 681.754 189.42C682.641 189.472 683.557 189.5 684.501 189.5C695.462 189.5 707.719 185.902 717.154 179.893C726.679 173.826 732.501 165.893 732.501 157.5C732.501 148.766 727.542 140.717 719.421 134.696C711.559 128.867 701.072 125.232 690.522 125.011L689.501 125Z" fill="#FFE8B3"/>
<path d="M689.501 121C712.973 121 736.501 136.79 736.501 157.5C736.501 178.211 707.973 193.5 684.501 193.5C681.331 193.5 678.415 193.218 675.742 192.685C674.685 193.158 673.603 193.591 672.501 193.983V187.675C673.386 187.984 674.314 188.257 675.286 188.491C687.943 182.329 696.501 169.98 696.501 158C696.501 145.121 686.646 131.601 672.501 125.854V121.578C672.634 121.626 672.767 121.673 672.899 121.723C677.501 121.248 682.983 121 689.501 121ZM689.501 125C686.064 125 682.944 125.073 680.115 125.207C692.34 132.537 700.501 145.341 700.501 158C700.501 170.084 693.064 182.105 681.754 189.42C682.641 189.472 683.557 189.5 684.501 189.5C695.462 189.5 707.719 185.902 717.154 179.893C726.679 173.826 732.501 165.893 732.501 157.5C732.501 148.766 727.542 140.717 719.421 134.696C711.559 128.867 701.072 125.232 690.522 125.011L689.501 125Z" fill="#FFE8B3"/>
<path d="M566.501 189C543.029 189 519.501 204.79 519.501 225.5C519.501 246.211 548.029 261.5 571.501 261.5C574.671 261.5 577.587 261.218 580.26 260.685C581.317 261.158 582.399 261.591 583.501 261.983V255.675C582.616 255.984 581.688 256.257 580.716 256.491C568.059 250.329 559.501 237.98 559.501 226C559.501 213.121 569.356 199.601 583.501 193.854V189.578C583.368 189.626 583.235 189.673 583.103 189.723C578.501 189.248 573.019 189 566.501 189ZM566.501 193C569.938 193 573.058 193.073 575.887 193.207C563.662 200.537 555.501 213.341 555.501 226C555.501 238.084 562.938 250.105 574.248 257.42C573.361 257.472 572.445 257.5 571.501 257.5C560.54 257.5 548.283 253.902 538.848 247.893C529.323 241.826 523.501 233.893 523.501 225.5C523.501 216.766 528.46 208.717 536.581 202.696C544.443 196.867 554.93 193.232 565.479 193.011L566.501 193Z" fill="#FFE8B3"/>
<path d="M566.501 189C543.029 189 519.501 204.79 519.501 225.5C519.501 246.211 548.029 261.5 571.501 261.5C574.671 261.5 577.587 261.218 580.26 260.685C581.317 261.158 582.399 261.591 583.501 261.983V255.675C582.616 255.984 581.688 256.257 580.716 256.491C568.059 250.329 559.501 237.98 559.501 226C559.501 213.121 569.356 199.601 583.501 193.854V189.578C583.368 189.626 583.235 189.673 583.103 189.723C578.501 189.248 573.019 189 566.501 189ZM566.501 193C569.938 193 573.058 193.073 575.887 193.207C563.662 200.537 555.501 213.341 555.501 226C555.501 238.084 562.938 250.105 574.248 257.42C573.361 257.472 572.445 257.5 571.501 257.5C560.54 257.5 548.283 253.902 538.848 247.893C529.323 241.826 523.501 233.893 523.501 225.5C523.501 216.766 528.46 208.717 536.581 202.696C544.443 196.867 554.93 193.232 565.479 193.011L566.501 193Z" fill="#FFE8B3"/>
<path d="M566.501 189C543.029 189 519.501 204.79 519.501 225.5C519.501 246.211 548.029 261.5 571.501 261.5C574.671 261.5 577.587 261.218 580.26 260.685C581.317 261.158 582.399 261.591 583.501 261.983V255.675C582.616 255.984 581.688 256.257 580.716 256.491C568.059 250.329 559.501 237.98 559.501 226C559.501 213.121 569.356 199.601 583.501 193.854V189.578C583.368 189.626 583.235 189.673 583.103 189.723C578.501 189.248 573.019 189 566.501 189ZM566.501 193C569.938 193 573.058 193.073 575.887 193.207C563.662 200.537 555.501 213.341 555.501 226C555.501 238.084 562.938 250.105 574.248 257.42C573.361 257.472 572.445 257.5 571.501 257.5C560.54 257.5 548.283 253.902 538.848 247.893C529.323 241.826 523.501 233.893 523.501 225.5C523.501 216.766 528.46 208.717 536.581 202.696C544.443 196.867 554.93 193.232 565.479 193.011L566.501 193Z" fill="#FFE8B3"/>
<path d="M566.501 189C543.029 189 519.501 204.79 519.501 225.5C519.501 246.211 548.029 261.5 571.501 261.5C574.671 261.5 577.587 261.218 580.26 260.685C581.317 261.158 582.399 261.591 583.501 261.983V255.675C582.616 255.984 581.688 256.257 580.716 256.491C568.059 250.329 559.501 237.98 559.501 226C559.501 213.121 569.356 199.601 583.501 193.854V189.578C583.368 189.626 583.235 189.673 583.103 189.723C578.501 189.248 573.019 189 566.501 189ZM566.501 193C569.938 193 573.058 193.073 575.887 193.207C563.662 200.537 555.501 213.341 555.501 226C555.501 238.084 562.938 250.105 574.248 257.42C573.361 257.472 572.445 257.5 571.501 257.5C560.54 257.5 548.283 253.902 538.848 247.893C529.323 241.826 523.501 233.893 523.501 225.5C523.501 216.766 528.46 208.717 536.581 202.696C544.443 196.867 554.93 193.232 565.479 193.011L566.501 193Z" fill="#FFE8B3"/>
<path d="M672.5 124L-1.23012e-05 121" stroke="#FFE8B3" stroke-width="4"/>
<line x1="676.501" y1="191" x2="582.501" y2="191" stroke="#FFE8B3" stroke-width="4"/>
<line x1="663.501" y1="259" x2="584.501" y2="259" stroke="#FFE8B3" stroke-width="4" stroke-linecap="round"/>
<path d="M633.501 102.991L3 102.99" stroke="#FFE8B3" stroke-width="6" stroke-linecap="round"/>
<path d="M1573 356C1549.53 356 1526 371.79 1526 392.5C1526 413.211 1554.53 428.5 1578 428.5C1581.17 428.5 1584.09 428.218 1586.76 427.685C1587.82 428.158 1588.9 428.591 1590 428.983V422.675C1589.11 422.984 1588.19 423.257 1587.21 423.491C1574.56 417.329 1566 404.98 1566 393C1566 380.121 1575.85 366.601 1590 360.854V356.578C1589.87 356.626 1589.73 356.673 1589.6 356.723C1585 356.248 1579.52 356 1573 356ZM1573 360C1576.44 360 1579.56 360.073 1582.39 360.207C1570.16 367.537 1562 380.341 1562 393C1562 405.084 1569.44 417.105 1580.75 424.42C1579.86 424.472 1578.94 424.5 1578 424.5C1567.04 424.5 1554.78 420.902 1545.35 414.893C1535.82 408.826 1530 400.893 1530 392.5C1530 383.766 1534.96 375.717 1543.08 369.696C1550.94 363.867 1561.43 360.232 1571.98 360.011L1573 360Z" fill="#FFE8B3"/>
<path d="M1573 356C1549.53 356 1526 371.79 1526 392.5C1526 413.211 1554.53 428.5 1578 428.5C1581.17 428.5 1584.09 428.218 1586.76 427.685C1587.82 428.158 1588.9 428.591 1590 428.983V422.675C1589.11 422.984 1588.19 423.257 1587.21 423.491C1574.56 417.329 1566 404.98 1566 393C1566 380.121 1575.85 366.601 1590 360.854V356.578C1589.87 356.626 1589.73 356.673 1589.6 356.723C1585 356.248 1579.52 356 1573 356ZM1573 360C1576.44 360 1579.56 360.073 1582.39 360.207C1570.16 367.537 1562 380.341 1562 393C1562 405.084 1569.44 417.105 1580.75 424.42C1579.86 424.472 1578.94 424.5 1578 424.5C1567.04 424.5 1554.78 420.902 1545.35 414.893C1535.82 408.826 1530 400.893 1530 392.5C1530 383.766 1534.96 375.717 1543.08 369.696C1550.94 363.867 1561.43 360.232 1571.98 360.011L1573 360Z" fill="#FFE8B3"/>
<path d="M1573 356C1549.53 356 1526 371.79 1526 392.5C1526 413.211 1554.53 428.5 1578 428.5C1581.17 428.5 1584.09 428.218 1586.76 427.685C1587.82 428.158 1588.9 428.591 1590 428.983V422.675C1589.11 422.984 1588.19 423.257 1587.21 423.491C1574.56 417.329 1566 404.98 1566 393C1566 380.121 1575.85 366.601 1590 360.854V356.578C1589.87 356.626 1589.73 356.673 1589.6 356.723C1585 356.248 1579.52 356 1573 356ZM1573 360C1576.44 360 1579.56 360.073 1582.39 360.207C1570.16 367.537 1562 380.341 1562 393C1562 405.084 1569.44 417.105 1580.75 424.42C1579.86 424.472 1578.94 424.5 1578 424.5C1567.04 424.5 1554.78 420.902 1545.35 414.893C1535.82 408.826 1530 400.893 1530 392.5C1530 383.766 1534.96 375.717 1543.08 369.696C1550.94 363.867 1561.43 360.232 1571.98 360.011L1573 360Z" fill="#FFE8B3"/>
<path d="M1573 356C1549.53 356 1526 371.79 1526 392.5C1526 413.211 1554.53 428.5 1578 428.5C1581.17 428.5 1584.09 428.218 1586.76 427.685C1587.82 428.158 1588.9 428.591 1590 428.983V422.675C1589.11 422.984 1588.19 423.257 1587.21 423.491C1574.56 417.329 1566 404.98 1566 393C1566 380.121 1575.85 366.601 1590 360.854V356.578C1589.87 356.626 1589.73 356.673 1589.6 356.723C1585 356.248 1579.52 356 1573 356ZM1573 360C1576.44 360 1579.56 360.073 1582.39 360.207C1570.16 367.537 1562 380.341 1562 393C1562 405.084 1569.44 417.105 1580.75 424.42C1579.86 424.472 1578.94 424.5 1578 424.5C1567.04 424.5 1554.78 420.902 1545.35 414.893C1535.82 408.826 1530 400.893 1530 392.5C1530 383.766 1534.96 375.717 1543.08 369.696C1550.94 363.867 1561.43 360.232 1571.98 360.011L1573 360Z" fill="#FFE8B3"/>
<path d="M1763 422C1786.47 422 1810 437.79 1810 458.5C1810 479.211 1781.47 494.5 1758 494.5C1754.83 494.5 1751.91 494.218 1749.24 493.685C1748.18 494.158 1747.1 494.591 1746 494.983V488.675C1746.89 488.984 1747.81 489.257 1748.79 489.491C1761.44 483.329 1770 470.98 1770 459C1770 446.121 1760.15 432.601 1746 426.854V422.578C1746.13 422.626 1746.27 422.673 1746.4 422.723C1751 422.248 1756.48 422 1763 422ZM1763 426C1759.56 426 1756.44 426.073 1753.61 426.207C1765.84 433.537 1774 446.341 1774 459C1774 471.084 1766.56 483.105 1755.25 490.42C1756.14 490.472 1757.06 490.5 1758 490.5C1768.96 490.5 1781.22 486.902 1790.65 480.893C1800.18 474.826 1806 466.893 1806 458.5C1806 449.766 1801.04 441.717 1792.92 435.696C1785.06 429.867 1774.57 426.232 1764.02 426.011L1763 426Z" fill="#FFE8B3"/>
<path d="M1763 422C1786.47 422 1810 437.79 1810 458.5C1810 479.211 1781.47 494.5 1758 494.5C1754.83 494.5 1751.91 494.218 1749.24 493.685C1748.18 494.158 1747.1 494.591 1746 494.983V488.675C1746.89 488.984 1747.81 489.257 1748.79 489.491C1761.44 483.329 1770 470.98 1770 459C1770 446.121 1760.15 432.601 1746 426.854V422.578C1746.13 422.626 1746.27 422.673 1746.4 422.723C1751 422.248 1756.48 422 1763 422ZM1763 426C1759.56 426 1756.44 426.073 1753.61 426.207C1765.84 433.537 1774 446.341 1774 459C1774 471.084 1766.56 483.105 1755.25 490.42C1756.14 490.472 1757.06 490.5 1758 490.5C1768.96 490.5 1781.22 486.902 1790.65 480.893C1800.18 474.826 1806 466.893 1806 458.5C1806 449.766 1801.04 441.717 1792.92 435.696C1785.06 429.867 1774.57 426.232 1764.02 426.011L1763 426Z" fill="#FFE8B3"/>
<path d="M1763 422C1786.47 422 1810 437.79 1810 458.5C1810 479.211 1781.47 494.5 1758 494.5C1754.83 494.5 1751.91 494.218 1749.24 493.685C1748.18 494.158 1747.1 494.591 1746 494.983V488.675C1746.89 488.984 1747.81 489.257 1748.79 489.491C1761.44 483.329 1770 470.98 1770 459C1770 446.121 1760.15 432.601 1746 426.854V422.578C1746.13 422.626 1746.27 422.673 1746.4 422.723C1751 422.248 1756.48 422 1763 422ZM1763 426C1759.56 426 1756.44 426.073 1753.61 426.207C1765.84 433.537 1774 446.341 1774 459C1774 471.084 1766.56 483.105 1755.25 490.42C1756.14 490.472 1757.06 490.5 1758 490.5C1768.96 490.5 1781.22 486.902 1790.65 480.893C1800.18 474.826 1806 466.893 1806 458.5C1806 449.766 1801.04 441.717 1792.92 435.696C1785.06 429.867 1774.57 426.232 1764.02 426.011L1763 426Z" fill="#FFE8B3"/>
<path d="M1763 422C1786.47 422 1810 437.79 1810 458.5C1810 479.211 1781.47 494.5 1758 494.5C1754.83 494.5 1751.91 494.218 1749.24 493.685C1748.18 494.158 1747.1 494.591 1746 494.983V488.675C1746.89 488.984 1747.81 489.257 1748.79 489.491C1761.44 483.329 1770 470.98 1770 459C1770 446.121 1760.15 432.601 1746 426.854V422.578C1746.13 422.626 1746.27 422.673 1746.4 422.723C1751 422.248 1756.48 422 1763 422ZM1763 426C1759.56 426 1756.44 426.073 1753.61 426.207C1765.84 433.537 1774 446.341 1774 459C1774 471.084 1766.56 483.105 1755.25 490.42C1756.14 490.472 1757.06 490.5 1758 490.5C1768.96 490.5 1781.22 486.902 1790.65 480.893C1800.18 474.826 1806 466.893 1806 458.5C1806 449.766 1801.04 441.717 1792.92 435.696C1785.06 429.867 1774.57 426.232 1764.02 426.011L1763 426Z" fill="#FFE8B3"/>
<path d="M1637.5 488C1614.03 488 1590.5 503.79 1590.5 524.5C1590.5 545.211 1619.03 560.5 1642.5 560.5C1645.67 560.5 1648.59 560.218 1651.26 559.685C1652.32 560.158 1653.4 560.591 1654.5 560.983V554.675C1653.62 554.984 1652.69 555.257 1651.72 555.491C1639.06 549.329 1630.5 536.98 1630.5 525C1630.5 512.121 1640.36 498.601 1654.5 492.854V488.578C1654.37 488.626 1654.23 488.673 1654.1 488.723C1649.5 488.248 1644.02 488 1637.5 488ZM1637.5 492C1640.94 492 1644.06 492.073 1646.89 492.207C1634.66 499.537 1626.5 512.341 1626.5 525C1626.5 537.084 1633.94 549.105 1645.25 556.42C1644.36 556.472 1643.45 556.5 1642.5 556.5C1631.54 556.5 1619.28 552.902 1609.85 546.893C1600.32 540.826 1594.5 532.893 1594.5 524.5C1594.5 515.766 1599.46 507.717 1607.58 501.696C1615.44 495.867 1625.93 492.232 1636.48 492.011L1637.5 492Z" fill="#FFE8B3"/>
<path d="M1637.5 488C1614.03 488 1590.5 503.79 1590.5 524.5C1590.5 545.211 1619.03 560.5 1642.5 560.5C1645.67 560.5 1648.59 560.218 1651.26 559.685C1652.32 560.158 1653.4 560.591 1654.5 560.983V554.675C1653.62 554.984 1652.69 555.257 1651.72 555.491C1639.06 549.329 1630.5 536.98 1630.5 525C1630.5 512.121 1640.36 498.601 1654.5 492.854V488.578C1654.37 488.626 1654.23 488.673 1654.1 488.723C1649.5 488.248 1644.02 488 1637.5 488ZM1637.5 492C1640.94 492 1644.06 492.073 1646.89 492.207C1634.66 499.537 1626.5 512.341 1626.5 525C1626.5 537.084 1633.94 549.105 1645.25 556.42C1644.36 556.472 1643.45 556.5 1642.5 556.5C1631.54 556.5 1619.28 552.902 1609.85 546.893C1600.32 540.826 1594.5 532.893 1594.5 524.5C1594.5 515.766 1599.46 507.717 1607.58 501.696C1615.44 495.867 1625.93 492.232 1636.48 492.011L1637.5 492Z" fill="#FFE8B3"/>
<path d="M1637.5 488C1614.03 488 1590.5 503.79 1590.5 524.5C1590.5 545.211 1619.03 560.5 1642.5 560.5C1645.67 560.5 1648.59 560.218 1651.26 559.685C1652.32 560.158 1653.4 560.591 1654.5 560.983V554.675C1653.62 554.984 1652.69 555.257 1651.72 555.491C1639.06 549.329 1630.5 536.98 1630.5 525C1630.5 512.121 1640.36 498.601 1654.5 492.854V488.578C1654.37 488.626 1654.23 488.673 1654.1 488.723C1649.5 488.248 1644.02 488 1637.5 488ZM1637.5 492C1640.94 492 1644.06 492.073 1646.89 492.207C1634.66 499.537 1626.5 512.341 1626.5 525C1626.5 537.084 1633.94 549.105 1645.25 556.42C1644.36 556.472 1643.45 556.5 1642.5 556.5C1631.54 556.5 1619.28 552.902 1609.85 546.893C1600.32 540.826 1594.5 532.893 1594.5 524.5C1594.5 515.766 1599.46 507.717 1607.58 501.696C1615.44 495.867 1625.93 492.232 1636.48 492.011L1637.5 492Z" fill="#FFE8B3"/>
<path d="M1637.5 488C1614.03 488 1590.5 503.79 1590.5 524.5C1590.5 545.211 1619.03 560.5 1642.5 560.5C1645.67 560.5 1648.59 560.218 1651.26 559.685C1652.32 560.158 1653.4 560.591 1654.5 560.983V554.675C1653.62 554.984 1652.69 555.257 1651.72 555.491C1639.06 549.329 1630.5 536.98 1630.5 525C1630.5 512.121 1640.36 498.601 1654.5 492.854V488.578C1654.37 488.626 1654.23 488.673 1654.1 488.723C1649.5 488.248 1644.02 488 1637.5 488ZM1637.5 492C1640.94 492 1644.06 492.073 1646.89 492.207C1634.66 499.537 1626.5 512.341 1626.5 525C1626.5 537.084 1633.94 549.105 1645.25 556.42C1644.36 556.472 1643.45 556.5 1642.5 556.5C1631.54 556.5 1619.28 552.902 1609.85 546.893C1600.32 540.826 1594.5 532.893 1594.5 524.5C1594.5 515.766 1599.46 507.717 1607.58 501.696C1615.44 495.867 1625.93 492.232 1636.48 492.011L1637.5 492Z" fill="#FFE8B3"/>
<path d="M2339 359H1582" stroke="#FFE8B3" stroke-width="4"/>
<path d="M2339 340L1641.5 340" stroke="#FFE8B3" stroke-width="6" stroke-linecap="round"/>
<line x1="1746" y1="426" x2="1590" y2="426" stroke="#FFE8B3" stroke-width="4"/>
<line x1="1754.5" y1="490" x2="1650.5" y2="490" stroke="#FFE8B3" stroke-width="4"/>
<path d="M1987 557H1650.5" stroke="#FFE8B3" stroke-width="4" stroke-linecap="round"/>
<defs>
<filter id="filter0_d_128_50" x="826.001" y="0" width="611" height="611" filterUnits="userSpaceOnUse" color-interpolation-filters="sRGB">
<feFlood flood-opacity="0" result="BackgroundImageFix"/>
<feColorMatrix in="SourceAlpha" type="matrix" values="0 0 0 0 0 0 0 0 0 0 0 0 0 0 0 0 0 0 127 0" result="hardAlpha"/>
<feOffset/>
<feGaussianBlur stdDeviation="25"/>
<feComposite in2="hardAlpha" operator="out"/>
<feColorMatrix type="matrix" values="0 0 0 0 1 0 0 0 0 0.911154 0 0 0 0 0.703846 0 0 0 1 0"/>
<feBlend mode="normal" in2="BackgroundImageFix" result="effect1_dropShadow_128_50"/>
<feBlend mode="normal" in="SourceGraphic" in2="effect1_dropShadow_128_50" result="shape"/>
</filter>
<filter id="filter1_d_128_50" x="481.2" y="367" width="106.603" height="120" filterUnits="userSpaceOnUse" color-interpolation-filters="sRGB">
<feFlood flood-opacity="0" result="BackgroundImageFix"/>
<feColorMatrix in="SourceAlpha" type="matrix" values="0 0 0 0 0 0 0 0 0 0 0 0 0 0 0 0 0 0 127 0" result="hardAlpha"/>
<feOffset/>
<feGaussianBlur stdDeviation="5"/>
<feComposite in2="hardAlpha" operator="out"/>
<feColorMatrix type="matrix" values="0 0 0 0 1 0 0 0 0 0.911154 0 0 0 0 0.703846 0 0 0 1 0"/>
<feBlend mode="normal" in2="BackgroundImageFix" result="effect1_dropShadow_128_50"/>
<feBlend mode="normal" in="SourceGraphic" in2="effect1_dropShadow_128_50" result="shape"/>
</filter>
<filter id="filter2_d_128_50" x="574.501" y="513" width="52" height="52" filterUnits="userSpaceOnUse" color-interpolation-filters="sRGB">
<feFlood flood-opacity="0" result="BackgroundImageFix"/>
<feColorMatrix in="SourceAlpha" type="matrix" values="0 0 0 0 0 0 0 0 0 0 0 0 0 0 0 0 0 0 127 0" result="hardAlpha"/>
<feOffset/>
<feGaussianBlur stdDeviation="5"/>
<feComposite in2="hardAlpha" operator="out"/>
<feColorMatrix type="matrix" values="0 0 0 0 1 0 0 0 0 0.911154 0 0 0 0 0.703846 0 0 0 1 0"/>
<feBlend mode="normal" in2="BackgroundImageFix" result="effect1_dropShadow_128_50"/>
<feBlend mode="normal" in="SourceGraphic" in2="effect1_dropShadow_128_50" result="shape"/>
</filter>
<filter id="filter3_d_128_50" x="1725.2" y="40" width="106.603" height="120" filterUnits="userSpaceOnUse" color-interpolation-filters="sRGB">
<feFlood flood-opacity="0" result="BackgroundImageFix"/>
<feColorMatrix in="SourceAlpha" type="matrix" values="0 0 0 0 0 0 0 0 0 0 0 0 0 0 0 0 0 0 127 0" result="hardAlpha"/>
<feOffset/>
<feGaussianBlur stdDeviation="5"/>
<feComposite in2="hardAlpha" operator="out"/>
<feColorMatrix type="matrix" values="0 0 0 0 1 0 0 0 0 0.911154 0 0 0 0 0.703846 0 0 0 1 0"/>
<feBlend mode="normal" in2="BackgroundImageFix" result="effect1_dropShadow_128_50"/>
<feBlend mode="normal" in="SourceGraphic" in2="effect1_dropShadow_128_50" result="shape"/>
</filter>
</defs>
</svg>
