<svg width="905" height="79" viewBox="0 0 905 79" fill="none" xmlns="http://www.w3.org/2000/svg">
<path d="M0.625 38.0312C1.9375 48.8438 4.20312 56.5938 7.42188 61.2812L8.3125 62.3125C8.8125 63.0312 10.0625 64.0938 12.0625 65.5C15.625 68 19.8438 69.25 24.7188 69.25C24.7812 69.25 24.8438 69.25 24.9062 69.25C26.8438 69.25 27.9375 69.2188 28.1875 69.1562C32.8125 68.2188 36.375 65.7812 38.875 61.8438C40.5312 58.9688 41.3594 55.9531 41.3594 52.7969V51.5781C41.0781 47.6719 38.4062 44.625 33.3438 42.4375L17.4062 35.125C9.46875 31.4375 5.46875 26.0312 5.40625 18.9062V17.9688C5.53125 13.125 7.28125 9.09375 10.6562 5.875C14.0625 2.625 18.3438 1 23.5 1C23.5938 1 23.6875 1 23.7812 1C28.9688 1 33.0469 2.95313 36.0156 6.85938L36.3906 6.90625C38.7344 6.65625 40.4062 4.6875 41.4062 1V28.0938C39.5312 20.375 37.5938 15.1875 35.5938 12.5312L34 10.5625C33.5312 10.125 32.7188 9.4375 31.5625 8.5C29.1562 6.53125 26.6875 5.53125 24.1562 5.5C24.1562 5.5 24.1094 5.5 24.0156 5.5C20.9844 5.5 18.5 6.40625 16.5625 8.21875C14.5625 10.0938 13.5625 12.6875 13.5625 16C13.5625 16.0938 13.5625 16.1875 13.5625 16.2812C13.5625 20.625 16.4688 24.0938 22.2812 26.6875L39.3438 34.2812C46.375 37.4062 50.125 43.0781 50.5938 51.2969V53.125C49.6562 59.25 47.0625 64.2188 42.8125 68.0312C38.6562 72.125 33.1562 74.1719 26.3125 74.1719H25.9375C23.6875 74.1719 20.4375 73.5312 16.1875 72.25L7.42188 68.5L6.8125 68.2656C3.6875 68.5156 1.625 70.5 0.625 74.2188V38.0312ZM55.2812 73C59.4688 72.125 62.4062 69.9531 64.0938 66.4844L64.1875 66.0625L74.0312 0.296875L99.2969 57.2031L123.484 0.296875L133.281 66.0625L133.375 66.4844C135.062 69.9531 138 72.125 142.188 73H115.094C121.062 70.7812 124.047 68.6719 124.047 66.6719C124.047 66.6094 124.047 66.5312 124.047 66.4375L124 66.0625L117.859 25.6094L96.5312 74.875L74.9688 25.1875L69.4375 66.0625L69.3906 66.625C69.4531 68.5 72.4375 70.625 78.3438 73H55.2812ZM137.969 73C141.812 72.25 144.734 70.0625 146.734 66.4375L146.875 66.0625L171.953 0.296875L197.5 66.0625L197.547 66.2031L197.688 66.625C199.688 70.125 202.594 72.25 206.406 73H179.312C185.281 71.25 188.266 69.3125 188.266 67.1875C188.266 66.9688 188.234 66.7344 188.172 66.4844L188.031 66.0625L180.859 47.6875H159.25L152.359 66.0625L152.219 66.5312C152.156 66.7188 152.125 66.9219 152.125 67.1406C152.125 69.0469 155.109 71 161.078 73H137.969ZM161.031 42.9062H179.031L169.938 18.1562L161.031 42.9062ZM234.203 5.875C231.766 5.875 229.375 6.45312 227.031 7.60938C226.094 8.17188 225.344 8.92188 224.781 9.85938C224.344 10.6094 224.125 11.6562 224.125 13V36.3438C225.688 39.25 228.219 41.25 231.719 42.3438C233.219 42.7812 234.672 43 236.078 43C236.234 43 236.406 43 236.594 43C236.719 43 237.344 42.9688 238.469 42.9062C241.438 42.5938 243.938 41.625 245.969 40C249.656 37.0312 251.5 31.9062 251.5 24.625C251.5 20.875 250.75 17.5 249.25 14.5C247.938 11.875 245.938 9.71875 243.25 8.03125C240.938 6.59375 237.922 5.875 234.203 5.875ZM205.938 73C209.812 72.25 212.75 70.0625 214.75 66.4375L214.844 66.0625V13C214.844 12.25 214.641 11.7031 214.234 11.3594C213.672 10.8906 212.719 10.5 211.375 10.1875C208.625 9.5625 206.812 9.21875 205.938 9.15625C208.094 8.1875 212.875 6.40625 220.281 3.8125C225.531 1.96875 230.062 1.04688 233.875 1.04688C234 1.04688 234.125 1.04688 234.25 1.04688C238.906 1.04688 242.812 1.6875 245.969 2.96875C249.156 4.21875 251.812 5.8125 253.938 7.75C256.844 10.4063 258.906 13.2188 260.125 16.1875C260.938 17.875 261.438 20.6875 261.625 24.625C261.469 30.75 259.688 35.625 256.281 39.25C253.688 42 250.781 44.0938 247.562 45.5312C248.719 46.1875 249.688 46.9844 250.469 47.9219C252.062 49.8594 254.875 55.3594 258.906 64.4219L259.891 66.4844C261.234 69.0781 262.859 70.375 264.766 70.375C264.828 70.375 264.891 70.375 264.953 70.375C266.641 70.375 268.203 69.7812 269.641 68.5938C271.203 67.2188 272.406 66.2188 273.25 65.5938C272.844 69.5312 271.531 72.6562 269.312 74.9688C266.875 77.5 264.359 78.7656 261.766 78.7656C261.703 78.7656 261.641 78.7656 261.578 78.7656C258.609 78.7656 256.031 77.2969 253.844 74.3594C253.375 73.7344 252.438 72.1094 251.031 69.4844L244.328 55.2812C242.234 51.2188 240 48.7031 237.625 47.7344L237.344 47.6406C236.656 47.6406 235.938 47.625 235.188 47.5938C230.688 47.4062 227 46.0938 224.125 43.6562V66.0625L224.219 66.4844C225.906 69.9531 228.844 72.125 233.031 73H205.938ZM284.875 73C288.75 72.25 291.688 70.0625 293.688 66.4375L293.781 66.0625V6.95312H280.328L279.672 7C277.453 7.21875 273.125 10.6406 266.688 17.2656L275.406 2.17188H321.438L330.156 17.2656C323.719 10.6406 319.391 7.21875 317.172 7L316.516 6.95312H303.062V66.0625L303.156 66.4844C304.844 69.9531 307.781 72.125 311.969 73H284.875ZM380.266 6.48438C378.703 7.04688 377.562 7.76562 376.844 8.64062C376.031 9.64062 375.594 11.0781 375.531 12.9531V62.2188C375.531 63.5938 375.75 64.6406 376.188 65.3594C376.781 66.3281 377.531 67.0781 378.438 67.6094C380.781 68.7969 383.516 69.3906 386.641 69.3906C387.141 69.3906 387.641 69.375 388.141 69.3438C394.672 68.9375 399.188 67.6875 401.688 65.5938C404.219 63.875 406.188 61.625 407.594 58.8438C408.562 56.9375 409.047 54.4531 409.047 51.3906C409.047 50.7969 409.031 50.1875 409 49.5625C408.781 45.1875 406.094 41.9062 400.938 39.7188C398 38.4688 394.75 37.25 391.188 36.0625C386.406 34.4688 383.75 33.5625 383.219 33.3438C388.562 31.625 391.547 30.6562 392.172 30.4375C394.078 29.75 395.75 29 397.188 28.1875C398.438 27.5 399.438 26.7812 400.188 26.0312C401.875 24.2812 402.719 21.875 402.719 18.8125C402.719 18.6875 402.719 18.5312 402.719 18.3438C402.719 14.5625 401.094 11.4062 397.844 8.875C395.781 7.28125 392.5 6.15625 388 5.5C387.562 5.4375 386.938 5.40625 386.125 5.40625C384.531 5.4375 382.578 5.79687 380.266 6.48438ZM357.344 66.0625C357.875 66.0312 359.688 65.6875 362.781 65.0312C364.062 64.75 365.016 64.3594 365.641 63.8594C366.047 63.5469 366.25 63 366.25 62.2188V12.9531C366.25 12.2344 366 11.6406 365.5 11.1719C364.812 10.5469 364 10.1562 363.062 10C360.25 9.53125 358.344 9.23438 357.344 9.10938L373.469 2.96875C376.906 1.65625 381.688 1 387.812 1C392.031 1 395.875 1.6875 399.344 3.0625C402.906 4.46875 405.688 6.1875 407.688 8.21875C410.312 10.875 411.812 14.0469 412.188 17.7344C412.219 18.0469 412.234 18.3594 412.234 18.6719C412.234 20.2969 411.875 21.9062 411.156 23.5C410.312 25.375 408.953 27 407.078 28.375C406.047 29.125 404.109 30.0312 401.266 31.0938C401.016 31.1875 398.25 31.9375 392.969 33.3438C396.062 33.5938 398.484 33.8281 400.234 34.0469C404.828 34.6406 408.125 35.4062 410.125 36.3438C414.875 38.5625 417.797 42.125 418.891 47.0312C419.234 48.5625 419.406 50.0781 419.406 51.5781C419.406 54.1094 418.938 56.6562 418 59.2188C416.656 62.9062 414.062 66.0312 410.219 68.5938C408.344 69.8438 404.969 71.1875 400.094 72.625C396.562 73.6562 392.469 74.1719 387.812 74.1719C387.406 74.1719 386.641 74.1562 385.516 74.125C380.922 73.9375 376.531 73.0625 372.344 71.5C364.531 68.5938 359.531 66.7812 357.344 66.0625ZM422.219 73C426.062 72.25 428.984 70.0625 430.984 66.4375L431.125 66.0625L456.203 0.296875L481.75 66.0625L481.797 66.2031L481.938 66.625C483.938 70.125 486.844 72.25 490.656 73H463.562C469.531 71.25 472.516 69.3125 472.516 67.1875C472.516 66.9688 472.484 66.7344 472.422 66.4844L472.281 66.0625L465.109 47.6875H443.5L436.609 66.0625L436.469 66.5312C436.406 66.7188 436.375 66.9219 436.375 67.1406C436.375 69.0469 439.359 71 445.328 73H422.219ZM445.281 42.9062H463.281L454.188 18.1562L445.281 42.9062ZM490.188 73C494.062 72.25 497 70.0625 499 66.4375L499.094 66.0625V9.10938L499 8.73438C497 5.10938 494.062 2.92188 490.188 2.17188H517.281C513.094 3.04688 510.156 5.21875 508.469 8.6875L508.375 9.10938V68.2188H531.906L532.562 68.1719C534.781 67.9531 539.109 64.5312 545.547 57.9062L536.828 73H490.188ZM538.562 73C542.406 72.25 545.328 70.0625 547.328 66.4375L547.469 66.0625L572.547 0.296875L598.094 66.0625L598.141 66.2031L598.281 66.625C600.281 70.125 603.188 72.25 607 73H579.906C585.875 71.25 588.859 69.3125 588.859 67.1875C588.859 66.9688 588.828 66.7344 588.766 66.4844L588.625 66.0625L581.453 47.6875H559.844L552.953 66.0625L552.812 66.5312C552.75 66.7188 552.719 66.9219 552.719 67.1406C552.719 69.0469 555.703 71 561.672 73H538.562ZM561.625 42.9062H579.625L570.531 18.1562L561.625 42.9062ZM606.531 73C610.406 72.25 613.344 70.0625 615.344 66.4375L615.438 66.0625V0.296875L659.406 52.375V9.10938L659.312 8.73438C657.312 5.10938 654.375 2.92188 650.5 2.17188H673.562C669.375 3.04688 666.438 5.21875 664.75 8.6875L664.656 9.10938V74.875L620.688 22.3281V66.0625L620.781 66.4844C622.469 69.9531 625.406 72.125 629.594 73H606.531ZM684.531 52.375C683.156 48 682.469 43.25 682.469 38.125C682.469 33 683.156 28.0625 684.531 23.3125C685.938 18.4375 687.812 14.4687 690.156 11.4062C692.594 8.1875 695.406 5.65625 698.594 3.8125C701.812 1.9375 705.062 1 708.344 1C708.5 1 708.656 1 708.812 1C712.438 1 715.797 1.8125 718.891 3.4375C721.016 4.5625 722.703 5.70312 723.953 6.85938L724.328 6.90625C727.453 6.65625 729.516 4.67187 730.516 0.953125V28.0469C728.891 21.6719 726.984 16.6719 724.797 13.0469C723.734 11.3906 722.375 9.95312 720.719 8.73438C718.156 6.85938 715.125 5.92188 711.625 5.92188C707.594 5.92188 703.875 7.26563 700.469 9.95312C698 12.7969 696.031 16.875 694.562 22.1875C693.125 27.4062 692.406 32.4844 692.406 37.4219C692.406 37.6094 692.406 37.8125 692.406 38.0312C692.406 42.9062 692.906 47.3438 693.906 51.3438C696.219 58.2188 699 63 702.25 65.6875C704.906 67.875 708.328 68.9688 712.516 68.9688C713.234 68.9688 713.969 68.9375 714.719 68.875C717.031 68.6875 719.625 67.6875 722.5 65.875C724.094 64.9062 725.875 63.1875 727.844 60.7188C729.094 59.1562 730.125 57.0938 730.938 54.5312L735.719 56.4062C734.531 59.125 733.156 61.5312 731.594 63.625C729.188 66.8125 726.375 69.3281 723.156 71.1719C719.625 73.1719 715.578 74.1719 711.016 74.1719C710.922 74.1719 710.844 74.1719 710.781 74.1719C706 74.1719 701.969 73.2344 698.688 71.3594C695.375 69.4531 692.531 66.9219 690.156 63.7656C687.812 60.6406 685.938 56.8438 684.531 52.375ZM743.219 73C747.094 72.25 750.031 70.0625 752.031 66.4375L752.125 66.0625V9.10938L752.031 8.73438C750.031 5.10938 747.094 2.92188 743.219 2.17188H770.312C766.125 3.04688 763.188 5.21875 761.5 8.6875L761.406 9.10938V66.0625L761.5 66.4844C763.188 69.9531 766.125 72.125 770.312 73H743.219ZM775.938 73C779.812 72.25 782.75 70.0625 784.75 66.4375L784.844 66.0625V0.296875L828.812 52.375V9.10938L828.719 8.73438C826.719 5.10938 823.781 2.92188 819.906 2.17188H842.969C838.781 3.04688 835.844 5.21875 834.156 8.6875L834.062 9.10938V74.875L790.094 22.3281V66.0625L790.188 66.4844C791.875 69.9531 794.812 72.125 799 73H775.938ZM853.938 52.4219C852.562 48.0156 851.875 43.25 851.875 38.125C851.875 33 852.562 28.0625 853.938 23.3125C855.344 18.4375 857.219 14.4687 859.562 11.4062C862 8.1875 864.812 5.65625 868 3.8125C871.219 1.9375 874.469 1 877.75 1C877.906 1 878.062 1 878.219 1C881.844 1 885.203 1.8125 888.297 3.4375C890.422 4.5625 892.109 5.70312 893.359 6.85938L893.734 6.90625C896.859 6.65625 898.922 4.67187 899.922 0.953125V28.0469C898.297 21.6719 896.391 16.6719 894.203 13.0469C893.141 11.3906 891.781 9.95312 890.125 8.73438C887.562 6.85938 884.531 5.92188 881.031 5.92188C877.344 5.92188 873.781 7.28125 870.344 10C867.625 12.6563 865.5 16.7187 863.969 22.1875C862.531 27.3438 861.812 32.3906 861.812 37.3281C861.812 37.5156 861.812 37.7188 861.812 37.9375C861.812 42.8125 862.312 47.25 863.312 51.25C865.125 57.9688 867.062 62.4375 869.125 64.6562C871.969 67.7188 875.125 69.25 878.594 69.25C881.531 69.25 884.453 67.9219 887.359 65.2656C890.516 61.7656 892.344 58.5625 892.844 55.6562C893 54.75 893.078 53.9062 893.078 53.125C893.078 51.5 892.781 50.1562 892.188 49.0938L891.953 48.7656C889.609 45.4844 885.625 43.5312 880 42.9062H904.375C904.062 46.25 903.438 49.4062 902.5 52.375C901.125 56.8125 899.25 60.6094 896.875 63.7656C894.531 66.8906 891.719 69.4062 888.438 71.3125C885.188 73.2188 881.781 74.1719 878.219 74.1719C874.656 74.1719 871.25 73.2344 868 71.3594C864.75 69.4531 861.938 66.9219 859.562 63.7656C857.188 60.5781 855.312 56.7969 853.938 52.4219Z" fill="#FFE8B3"/>
</svg>
