<svg width="732" height="919" viewBox="0 0 732 919" fill="none" xmlns="http://www.w3.org/2000/svg">
<path d="M370.966 508C356.803 508 344.629 517.294 339.259 530.606C324.518 531.734 317.441 538.674 314.051 549.761C313.347 549.72 312.638 549.697 311.924 549.697C292.084 549.697 276 565.781 276 585.621C276 589.423 276.594 593.087 277.688 596.526H565.999C547.878 582.186 517.049 572.285 499.92 571.554C496.243 558.315 484.991 548.68 471.681 548.68C471.103 548.68 470.529 548.7 469.96 548.735C464.194 525.272 444.604 508 421.323 508C411.051 508 401.496 511.364 393.531 517.138C387.469 511.442 379.585 508 370.966 508Z" fill="#FFE8B3"/>
<path d="M395.072 273C381.788 273 370.369 281.714 365.333 294.195C351.507 295.252 344.869 301.759 341.689 312.154C341.029 312.115 340.364 312.094 339.694 312.094C321.085 312.094 306 327.174 306 345.776C306 349.341 306.557 352.775 307.584 356H578C561.004 342.555 532.088 333.272 516.022 332.586C512.573 320.174 502.02 311.14 489.536 311.14C488.994 311.14 488.456 311.159 487.922 311.192C482.514 289.194 464.139 273 442.304 273C432.669 273 423.707 276.154 416.237 281.567C410.551 276.228 403.156 273 395.072 273Z" fill="#FFE8B3"/>
<path d="M368.757 277.512C367.811 279.13 366.974 280.833 366.259 282.606C351.518 283.734 344.441 290.674 341.051 301.761C340.347 301.72 339.638 301.697 338.924 301.697C327.658 301.697 317.605 306.885 311.019 315H279C303.03 295.982 341.397 281.973 368.757 277.512ZM583.029 177C605.108 177 624.091 191.487 632.462 212.241C655.436 214 666.466 224.817 671.751 242.097C672.849 242.033 673.955 242 675.068 242C705.996 242 731.068 267.072 731.068 298C731.068 303.927 730.148 309.639 728.441 315H523.207C517.912 306.365 508.904 300.68 498.681 300.68C498.103 300.68 497.529 300.7 496.96 300.735C491.194 277.272 471.604 260 448.323 260C438.051 260 428.496 263.364 420.531 269.138C414.469 263.442 406.585 260 397.966 260C394.74 260 391.618 260.483 388.656 261.385C397.005 248.685 410.632 240.413 426.029 240.413C426.93 240.413 427.824 240.442 428.712 240.498C437.7 203.924 468.239 177 504.529 177C520.543 177 535.436 182.244 547.853 191.245C557.302 182.366 569.592 177 583.029 177Z" fill="#FFE8B3"/>
<g filter="url(#filter0_d_121_102)">
<path d="M545 513L549.321 524.679L561 529L549.321 533.321L545 545L540.679 533.321L529 529L540.679 524.679L545 513Z" fill="#FFE8B3"/>
</g>
<g filter="url(#filter1_d_121_102)">
<path d="M548 124L552.321 135.679L564 140L552.321 144.321L548 156L543.679 144.321L532 140L543.679 135.679L548 124Z" fill="#FFE8B3"/>
</g>
<g filter="url(#filter2_d_121_102)">
<path d="M455 877L459.321 888.679L471 893L459.321 897.321L455 909L450.679 897.321L439 893L450.679 888.679L455 877Z" fill="#FFE8B3"/>
</g>
<line y1="-2" x2="541" y2="-2" transform="matrix(-1 0 0 1 541 698)" stroke="#FFE8B3" stroke-width="4"/>
<line x1="539" y1="762" x2="445" y2="762" stroke="#FFE8B3" stroke-width="4"/>
<line x1="531" y1="828" x2="448" y2="828" stroke="#FFE8B3" stroke-width="4"/>
<line x1="502" y1="675" x2="82" y2="675" stroke="#FFE8B3" stroke-width="6"/>
<line x1="627" y1="3" x2="82" y2="3" stroke="#FFE8B3" stroke-width="6"/>
<line x1="140" y1="19" x2="681" y2="19" stroke="#FFE8B3" stroke-width="4"/>
<line x1="335" y1="85" x2="679" y2="85" stroke="#FFE8B3" stroke-width="4"/>
<line x1="348" y1="148" x2="473" y2="148" stroke="#FFE8B3" stroke-width="4"/>
<g filter="url(#filter3_d_121_102)">
<path d="M482 395L491.549 428.46L525.301 420L501.098 445L525.301 470L491.549 461.54L482 495L472.451 461.54L438.699 470L462.902 445L438.699 420L472.451 428.46L482 395Z" fill="#FFE8B3"/>
</g>
<path d="M538.5 762.042C538.5 762.042 572 764.042 572 729.042C572 694.042 538.5 696.042 538.5 696.042" stroke="#FFE8B3" stroke-width="4"/>
<path d="M512 762.021C512 762.021 545.5 764.021 545.5 729.021C545.5 694.021 512 696.021 512 696.021" stroke="#FFE8B3" stroke-width="4"/>
<path d="M677.5 85.0419C677.5 85.0419 711 87.0422 711 52.0419C711 17.0417 677.5 19.042 677.5 19.042" stroke="#FFE8B3" stroke-width="4"/>
<path d="M651 85.0209C651 85.0209 684.5 87.0212 684.5 52.0209C684.5 17.0207 651 19.021 651 19.021" stroke="#FFE8B3" stroke-width="4"/>
<path d="M448.5 762.021C448.5 762.021 415 760.021 415 795.021C415 830.021 448.5 828.021 448.5 828.021" stroke="#FFE8B3" stroke-width="4"/>
<path d="M475 762.042C475 762.042 441.5 760.042 441.5 795.042C441.5 830.042 475 828.042 475 828.042" stroke="#FFE8B3" stroke-width="4"/>
<defs>
<filter id="filter0_d_121_102" x="519" y="503" width="52" height="52" filterUnits="userSpaceOnUse" color-interpolation-filters="sRGB">
<feFlood flood-opacity="0" result="BackgroundImageFix"/>
<feColorMatrix in="SourceAlpha" type="matrix" values="0 0 0 0 0 0 0 0 0 0 0 0 0 0 0 0 0 0 127 0" result="hardAlpha"/>
<feOffset/>
<feGaussianBlur stdDeviation="5"/>
<feComposite in2="hardAlpha" operator="out"/>
<feColorMatrix type="matrix" values="0 0 0 0 1 0 0 0 0 0.911154 0 0 0 0 0.703846 0 0 0 1 0"/>
<feBlend mode="normal" in2="BackgroundImageFix" result="effect1_dropShadow_121_102"/>
<feBlend mode="normal" in="SourceGraphic" in2="effect1_dropShadow_121_102" result="shape"/>
</filter>
<filter id="filter1_d_121_102" x="522" y="114" width="52" height="52" filterUnits="userSpaceOnUse" color-interpolation-filters="sRGB">
<feFlood flood-opacity="0" result="BackgroundImageFix"/>
<feColorMatrix in="SourceAlpha" type="matrix" values="0 0 0 0 0 0 0 0 0 0 0 0 0 0 0 0 0 0 127 0" result="hardAlpha"/>
<feOffset/>
<feGaussianBlur stdDeviation="5"/>
<feComposite in2="hardAlpha" operator="out"/>
<feColorMatrix type="matrix" values="0 0 0 0 1 0 0 0 0 0.911154 0 0 0 0 0.703846 0 0 0 1 0"/>
<feBlend mode="normal" in2="BackgroundImageFix" result="effect1_dropShadow_121_102"/>
<feBlend mode="normal" in="SourceGraphic" in2="effect1_dropShadow_121_102" result="shape"/>
</filter>
<filter id="filter2_d_121_102" x="429" y="867" width="52" height="52" filterUnits="userSpaceOnUse" color-interpolation-filters="sRGB">
<feFlood flood-opacity="0" result="BackgroundImageFix"/>
<feColorMatrix in="SourceAlpha" type="matrix" values="0 0 0 0 0 0 0 0 0 0 0 0 0 0 0 0 0 0 127 0" result="hardAlpha"/>
<feOffset/>
<feGaussianBlur stdDeviation="5"/>
<feComposite in2="hardAlpha" operator="out"/>
<feColorMatrix type="matrix" values="0 0 0 0 1 0 0 0 0 0.911154 0 0 0 0 0.703846 0 0 0 1 0"/>
<feBlend mode="normal" in2="BackgroundImageFix" result="effect1_dropShadow_121_102"/>
<feBlend mode="normal" in="SourceGraphic" in2="effect1_dropShadow_121_102" result="shape"/>
</filter>
<filter id="filter3_d_121_102" x="428.699" y="385" width="106.603" height="120" filterUnits="userSpaceOnUse" color-interpolation-filters="sRGB">
<feFlood flood-opacity="0" result="BackgroundImageFix"/>
<feColorMatrix in="SourceAlpha" type="matrix" values="0 0 0 0 0 0 0 0 0 0 0 0 0 0 0 0 0 0 127 0" result="hardAlpha"/>
<feOffset/>
<feGaussianBlur stdDeviation="5"/>
<feComposite in2="hardAlpha" operator="out"/>
<feColorMatrix type="matrix" values="0 0 0 0 1 0 0 0 0 0.911154 0 0 0 0 0.703846 0 0 0 1 0"/>
<feBlend mode="normal" in2="BackgroundImageFix" result="effect1_dropShadow_121_102"/>
<feBlend mode="normal" in="SourceGraphic" in2="effect1_dropShadow_121_102" result="shape"/>
</filter>
</defs>
</svg>
