<svg width="488" height="919" viewBox="0 0 488 919" fill="none" xmlns="http://www.w3.org/2000/svg">
<path d="M126.966 508C112.803 508 100.629 517.294 95.2588 530.606C80.518 531.734 73.4413 538.674 70.0508 549.761C69.3471 549.72 68.6378 549.697 67.9238 549.697C48.0838 549.697 32 565.781 32 585.621C32 589.423 32.5937 593.087 33.6885 596.526H321.999C303.878 582.186 273.049 572.285 255.92 571.554C252.243 558.315 240.991 548.68 227.681 548.68C227.103 548.68 226.529 548.7 225.96 548.735C220.194 525.272 200.604 508 177.323 508C167.051 508 157.496 511.364 149.531 517.138C143.469 511.442 135.585 508 126.966 508Z" fill="#FFE8B3"/>
<path d="M154.452 274C141.559 274 130.476 282.504 125.588 294.684C112.168 295.716 105.726 302.066 102.639 312.21C101.999 312.173 101.353 312.152 100.703 312.152C82.6418 312.152 68 326.869 68 345.022C68 348.501 68.5405 351.853 69.5371 355H332C315.504 341.879 287.438 332.82 271.845 332.15C268.497 320.037 258.255 311.221 246.137 311.221C245.612 311.221 245.089 311.239 244.571 311.272C239.322 289.804 221.488 274 200.295 274C190.943 274 182.245 277.078 174.994 282.361C169.476 277.15 162.299 274 154.452 274Z" fill="#FFE8B3"/>
<path d="M124.757 277.512C123.811 279.13 122.974 280.833 122.259 282.606C107.518 283.734 100.441 290.674 97.0508 301.761C96.3471 301.72 95.6378 301.697 94.9238 301.697C83.6579 301.697 73.6051 306.885 67.0186 315H35C59.0301 295.982 97.3972 281.973 124.757 277.512ZM339.029 177C361.108 177 380.091 191.487 388.462 212.241C411.436 214 422.466 224.817 427.751 242.097C428.849 242.033 429.955 242 431.068 242C461.996 242 487.068 267.072 487.068 298C487.068 303.927 486.148 309.639 484.441 315H279.207C273.912 306.365 264.904 300.68 254.681 300.68C254.103 300.68 253.529 300.7 252.96 300.735C247.194 277.272 227.604 260 204.323 260C194.051 260 184.496 263.364 176.531 269.138C170.469 263.442 162.585 260 153.966 260C150.74 260 147.618 260.483 144.656 261.385C153.005 248.685 166.632 240.413 182.029 240.413C182.93 240.413 183.824 240.442 184.712 240.498C193.7 203.924 224.239 177 260.529 177C276.543 177 291.436 182.244 303.853 191.245C313.302 182.366 325.592 177 339.029 177Z" fill="#FFE8B3"/>
<g filter="url(#filter0_d_142_96)">
<path d="M301 513L305.321 524.679L317 529L305.321 533.321L301 545L296.679 533.321L285 529L296.679 524.679L301 513Z" fill="#FFE8B3"/>
</g>
<g filter="url(#filter1_d_142_96)">
<path d="M304 124L308.321 135.679L320 140L308.321 144.321L304 156L299.679 144.321L288 140L299.679 135.679L304 124Z" fill="#FFE8B3"/>
</g>
<g filter="url(#filter2_d_142_96)">
<path d="M211 877L215.321 888.679L227 893L215.321 897.321L211 909L206.679 897.321L195 893L206.679 888.679L211 877Z" fill="#FFE8B3"/>
</g>
<line x1="297" y1="700" x2="-1.74846e-07" y2="700" stroke="#FFE8B3" stroke-width="4"/>
<line x1="294" y1="766" x2="200" y2="766" stroke="#FFE8B3" stroke-width="4"/>
<line x1="286" y1="832" x2="203" y2="832" stroke="#FFE8B3" stroke-width="4"/>
<line x1="258" y1="675" x2="2" y2="675" stroke="#FFE8B3" stroke-width="6"/>
<path d="M383 3L0 3" stroke="#FFE8B3" stroke-width="6"/>
<path d="M2.5 19H437" stroke="#FFE8B3" stroke-width="4"/>
<line x1="91" y1="85" x2="435" y2="85" stroke="#FFE8B3" stroke-width="4"/>
<line x1="92" y1="151" x2="217" y2="151" stroke="#FFE8B3" stroke-width="4"/>
<g filter="url(#filter3_d_142_96)">
<path d="M238 395L247.549 428.46L281.301 420L257.098 445L281.301 470L247.549 461.54L238 495L228.451 461.54L194.699 470L218.902 445L194.699 420L228.451 428.46L238 395Z" fill="#FFE8B3"/>
</g>
<path d="M293.5 766.042C293.5 766.042 327 768.042 327 733.042C327 698.042 293.5 700.042 293.5 700.042" stroke="#FFE8B3" stroke-width="4"/>
<path d="M267 766.021C267 766.021 300.5 768.021 300.5 733.021C300.5 698.021 267 700.021 267 700.021" stroke="#FFE8B3" stroke-width="4"/>
<path d="M433.5 85.0419C433.5 85.0419 467 87.0422 467 52.0419C467 17.0417 433.5 19.042 433.5 19.042" stroke="#FFE8B3" stroke-width="4"/>
<path d="M407 85.0209C407 85.0209 440.5 87.0212 440.5 52.0209C440.5 17.0207 407 19.021 407 19.021" stroke="#FFE8B3" stroke-width="4"/>
<path d="M94.5 85.021C94.5 85.021 61 83.0208 61 118.021C61 153.021 94.5 151.021 94.5 151.021" stroke="#FFE8B3" stroke-width="4"/>
<path d="M121 85.042C121 85.042 87.5 83.0418 87.5 118.042C87.5 153.042 121 151.042 121 151.042" stroke="#FFE8B3" stroke-width="4"/>
<path d="M203.5 766.021C203.5 766.021 170 764.021 170 799.021C170 834.021 203.5 832.021 203.5 832.021" stroke="#FFE8B3" stroke-width="4"/>
<path d="M230 766.042C230 766.042 196.5 764.042 196.5 799.042C196.5 834.042 230 832.042 230 832.042" stroke="#FFE8B3" stroke-width="4"/>
<defs>
<filter id="filter0_d_142_96" x="275" y="503" width="52" height="52" filterUnits="userSpaceOnUse" color-interpolation-filters="sRGB">
<feFlood flood-opacity="0" result="BackgroundImageFix"/>
<feColorMatrix in="SourceAlpha" type="matrix" values="0 0 0 0 0 0 0 0 0 0 0 0 0 0 0 0 0 0 127 0" result="hardAlpha"/>
<feOffset/>
<feGaussianBlur stdDeviation="5"/>
<feComposite in2="hardAlpha" operator="out"/>
<feColorMatrix type="matrix" values="0 0 0 0 1 0 0 0 0 0.911154 0 0 0 0 0.703846 0 0 0 1 0"/>
<feBlend mode="normal" in2="BackgroundImageFix" result="effect1_dropShadow_142_96"/>
<feBlend mode="normal" in="SourceGraphic" in2="effect1_dropShadow_142_96" result="shape"/>
</filter>
<filter id="filter1_d_142_96" x="278" y="114" width="52" height="52" filterUnits="userSpaceOnUse" color-interpolation-filters="sRGB">
<feFlood flood-opacity="0" result="BackgroundImageFix"/>
<feColorMatrix in="SourceAlpha" type="matrix" values="0 0 0 0 0 0 0 0 0 0 0 0 0 0 0 0 0 0 127 0" result="hardAlpha"/>
<feOffset/>
<feGaussianBlur stdDeviation="5"/>
<feComposite in2="hardAlpha" operator="out"/>
<feColorMatrix type="matrix" values="0 0 0 0 1 0 0 0 0 0.911154 0 0 0 0 0.703846 0 0 0 1 0"/>
<feBlend mode="normal" in2="BackgroundImageFix" result="effect1_dropShadow_142_96"/>
<feBlend mode="normal" in="SourceGraphic" in2="effect1_dropShadow_142_96" result="shape"/>
</filter>
<filter id="filter2_d_142_96" x="185" y="867" width="52" height="52" filterUnits="userSpaceOnUse" color-interpolation-filters="sRGB">
<feFlood flood-opacity="0" result="BackgroundImageFix"/>
<feColorMatrix in="SourceAlpha" type="matrix" values="0 0 0 0 0 0 0 0 0 0 0 0 0 0 0 0 0 0 127 0" result="hardAlpha"/>
<feOffset/>
<feGaussianBlur stdDeviation="5"/>
<feComposite in2="hardAlpha" operator="out"/>
<feColorMatrix type="matrix" values="0 0 0 0 1 0 0 0 0 0.911154 0 0 0 0 0.703846 0 0 0 1 0"/>
<feBlend mode="normal" in2="BackgroundImageFix" result="effect1_dropShadow_142_96"/>
<feBlend mode="normal" in="SourceGraphic" in2="effect1_dropShadow_142_96" result="shape"/>
</filter>
<filter id="filter3_d_142_96" x="184.699" y="385" width="106.603" height="120" filterUnits="userSpaceOnUse" color-interpolation-filters="sRGB">
<feFlood flood-opacity="0" result="BackgroundImageFix"/>
<feColorMatrix in="SourceAlpha" type="matrix" values="0 0 0 0 0 0 0 0 0 0 0 0 0 0 0 0 0 0 127 0" result="hardAlpha"/>
<feOffset/>
<feGaussianBlur stdDeviation="5"/>
<feComposite in2="hardAlpha" operator="out"/>
<feColorMatrix type="matrix" values="0 0 0 0 1 0 0 0 0 0.911154 0 0 0 0 0.703846 0 0 0 1 0"/>
<feBlend mode="normal" in2="BackgroundImageFix" result="effect1_dropShadow_142_96"/>
<feBlend mode="normal" in="SourceGraphic" in2="effect1_dropShadow_142_96" result="shape"/>
</filter>
</defs>
</svg>
