<svg width="633" height="837" viewBox="0 0 633 837" fill="none" xmlns="http://www.w3.org/2000/svg">
<path d="M155.107 276C142.117 276 130.949 284.524 126.023 296.735C112.503 297.769 106.014 304.136 102.904 314.305C102.258 314.267 101.607 314.246 100.951 314.246C82.753 314.246 68 328.999 68 347.197C68 350.685 68.5437 354.045 69.5479 357.2H333.999C317.378 344.047 289.1 334.966 273.389 334.295C270.016 322.151 259.696 313.313 247.487 313.312C246.957 313.312 246.429 313.331 245.906 313.364C240.618 291.843 222.65 276 201.297 276C191.874 276 183.112 279.088 175.807 284.384C170.246 279.159 163.014 276 155.107 276Z" fill="#FFE8B3"/>
<path d="M480.029 170C502.108 170 521.091 184.487 529.462 205.241C552.436 207 563.466 217.817 568.751 235.097C569.849 235.033 570.955 235 572.068 235C602.996 235 628.068 260.072 628.068 291C628.068 296.927 627.148 302.639 625.441 308H268.73C264.796 305.875 260.366 304.68 255.681 304.68C255.103 304.68 254.529 304.7 253.96 304.735C251.29 293.871 245.655 284.335 238.062 277.226C253.416 272.428 268.022 269.537 279.011 269.068C284.744 248.432 302.281 233.413 323.029 233.413C323.93 233.413 324.824 233.442 325.712 233.498C334.7 196.924 365.239 170 401.529 170C417.543 170 432.436 175.244 444.853 184.245C454.302 175.366 466.592 170 480.029 170Z" fill="#FFE8B3"/>
<path d="M94.9658 0C80.8033 0.000235699 68.6289 9.29394 63.2588 22.6064C48.518 23.7338 41.4413 30.6739 38.0508 41.7607C37.3471 41.7196 36.6378 41.6973 35.9238 41.6973C16.0837 41.6973 0 57.781 0 77.6211C0 81.4235 0.59375 85.0869 1.68848 88.5264H289.999C271.878 74.1859 241.049 64.285 223.92 63.5537C220.243 50.3148 208.991 40.6797 195.681 40.6797C195.103 40.6797 194.529 40.6995 193.96 40.7354C188.194 17.2723 168.604 0 145.323 0C135.051 0.000119268 125.496 3.36352 117.531 9.1377C111.469 3.44242 103.585 0 94.9658 0Z" fill="#FFE8B3"/>
<g filter="url(#filter0_d_142_97)">
<path d="M362 377L371.549 410.46L405.301 402L381.098 427L405.301 452L371.549 443.54L362 477L352.451 443.54L318.699 452L342.902 427L318.699 402L352.451 410.46L362 377Z" fill="#FFE8B3"/>
</g>
<g filter="url(#filter1_d_142_97)">
<path d="M279 170L283.321 181.679L295 186L283.321 190.321L279 202L274.679 190.321L263 186L274.679 181.679L279 170Z" fill="#FFE8B3"/>
</g>
<line x1="632.992" y1="547" x2="108.992" y2="545.037" stroke="#FFE8B3" stroke-width="4"/>
<line x1="572" y1="527" x2="152" y2="527" stroke="#FFE8B3" stroke-width="6"/>
<line x1="265" y1="611" x2="109" y2="611" stroke="#FFE8B3" stroke-width="4"/>
<line x1="265" y1="677" x2="164" y2="677" stroke="#FFE8B3" stroke-width="4"/>
<line x1="254" y1="743" x2="164" y2="743" stroke="#FFE8B3" stroke-width="4"/>
<path d="M111 545C111 545 77.5 543 77.5 578C77.5 613.001 111 611 111 611" stroke="#FFE8B3" stroke-width="4"/>
<path d="M137.5 545.021C137.5 545.021 104 543.021 104 578.021C104 613.021 137.5 611.021 137.5 611.021" stroke="#FFE8B3" stroke-width="4"/>
<path d="M263.5 677.042C263.5 677.042 297 679.042 297 644.042C297 609.042 263.5 611.042 263.5 611.042" stroke="#FFE8B3" stroke-width="4"/>
<path d="M237 677.021C237 677.021 270.5 679.021 270.5 644.021C270.5 609.021 237 611.021 237 611.021" stroke="#FFE8B3" stroke-width="4"/>
<path d="M165.5 677.021C165.5 677.021 132 675.021 132 710.021C132 745.021 165.5 743.021 165.5 743.021" stroke="#FFE8B3" stroke-width="4"/>
<path d="M192 677.042C192 677.042 158.5 675.042 158.5 710.042C158.5 745.042 192 743.042 192 743.042" stroke="#FFE8B3" stroke-width="4"/>
<g filter="url(#filter2_d_142_97)">
<path d="M247 795L251.321 806.679L263 811L251.321 815.321L247 827L242.679 815.321L231 811L242.679 806.679L247 795Z" fill="#FFE8B3"/>
</g>
<defs>
<filter id="filter0_d_142_97" x="308.699" y="367" width="106.603" height="120" filterUnits="userSpaceOnUse" color-interpolation-filters="sRGB">
<feFlood flood-opacity="0" result="BackgroundImageFix"/>
<feColorMatrix in="SourceAlpha" type="matrix" values="0 0 0 0 0 0 0 0 0 0 0 0 0 0 0 0 0 0 127 0" result="hardAlpha"/>
<feOffset/>
<feGaussianBlur stdDeviation="5"/>
<feComposite in2="hardAlpha" operator="out"/>
<feColorMatrix type="matrix" values="0 0 0 0 1 0 0 0 0 0.911154 0 0 0 0 0.703846 0 0 0 1 0"/>
<feBlend mode="normal" in2="BackgroundImageFix" result="effect1_dropShadow_142_97"/>
<feBlend mode="normal" in="SourceGraphic" in2="effect1_dropShadow_142_97" result="shape"/>
</filter>
<filter id="filter1_d_142_97" x="253" y="160" width="52" height="52" filterUnits="userSpaceOnUse" color-interpolation-filters="sRGB">
<feFlood flood-opacity="0" result="BackgroundImageFix"/>
<feColorMatrix in="SourceAlpha" type="matrix" values="0 0 0 0 0 0 0 0 0 0 0 0 0 0 0 0 0 0 127 0" result="hardAlpha"/>
<feOffset/>
<feGaussianBlur stdDeviation="5"/>
<feComposite in2="hardAlpha" operator="out"/>
<feColorMatrix type="matrix" values="0 0 0 0 1 0 0 0 0 0.911154 0 0 0 0 0.703846 0 0 0 1 0"/>
<feBlend mode="normal" in2="BackgroundImageFix" result="effect1_dropShadow_142_97"/>
<feBlend mode="normal" in="SourceGraphic" in2="effect1_dropShadow_142_97" result="shape"/>
</filter>
<filter id="filter2_d_142_97" x="221" y="785" width="52" height="52" filterUnits="userSpaceOnUse" color-interpolation-filters="sRGB">
<feFlood flood-opacity="0" result="BackgroundImageFix"/>
<feColorMatrix in="SourceAlpha" type="matrix" values="0 0 0 0 0 0 0 0 0 0 0 0 0 0 0 0 0 0 127 0" result="hardAlpha"/>
<feOffset/>
<feGaussianBlur stdDeviation="5"/>
<feComposite in2="hardAlpha" operator="out"/>
<feColorMatrix type="matrix" values="0 0 0 0 1 0 0 0 0 0.911154 0 0 0 0 0.703846 0 0 0 1 0"/>
<feBlend mode="normal" in2="BackgroundImageFix" result="effect1_dropShadow_142_97"/>
<feBlend mode="normal" in="SourceGraphic" in2="effect1_dropShadow_142_97" result="shape"/>
</filter>
</defs>
</svg>
