<svg width="633" height="985" viewBox="0 0 633 985" fill="none" xmlns="http://www.w3.org/2000/svg">
<mask id="path-1-inside-1_40_133" fill="white">
<path d="M480.029 170C502.108 170 521.091 184.487 529.462 205.241C552.436 207 563.466 217.817 568.751 235.097C569.849 235.033 570.955 235 572.068 235C602.996 235 628.068 260.072 628.068 291C628.068 296.927 627.148 302.639 625.441 308H176C204.249 285.643 252.309 270.208 279.011 269.068C284.744 248.432 302.281 233.413 323.029 233.413C323.93 233.413 324.824 233.442 325.712 233.498C334.7 196.924 365.239 170 401.529 170C417.543 170 432.436 175.244 444.853 184.245C454.302 175.366 466.592 170 480.029 170Z"/>
</mask>
<path d="M480.029 170C502.108 170 521.091 184.487 529.462 205.241C552.436 207 563.466 217.817 568.751 235.097C569.849 235.033 570.955 235 572.068 235C602.996 235 628.068 260.072 628.068 291C628.068 296.927 627.148 302.639 625.441 308H176C204.249 285.643 252.309 270.208 279.011 269.068C284.744 248.432 302.281 233.413 323.029 233.413C323.93 233.413 324.824 233.442 325.712 233.498C334.7 196.924 365.239 170 401.529 170C417.543 170 432.436 175.244 444.853 184.245C454.302 175.366 466.592 170 480.029 170Z" fill="#FFE8B3"/>
<path d="M529.462 205.241L525.752 206.737L526.681 209.04L529.157 209.23L529.462 205.241ZM568.751 235.097L564.926 236.267L565.846 239.273L568.984 239.09L568.751 235.097ZM625.441 308V312H628.366L629.253 309.213L625.441 308ZM176 308L173.518 304.863L164.5 312H176V308ZM279.011 269.068L279.181 273.065L282.086 272.941L282.865 270.139L279.011 269.068ZM325.712 233.498L325.461 237.49L328.798 237.7L329.596 234.453L325.712 233.498ZM444.853 184.245L442.505 187.484L445.182 189.424L447.592 187.16L444.853 184.245ZM480.029 170V174C500.258 174 517.906 187.283 525.752 206.737L529.462 205.241L533.172 203.745C524.276 181.691 503.958 166 480.029 166V170ZM529.462 205.241L529.157 209.23C540.069 210.065 547.726 213.014 553.225 217.459C558.724 221.904 562.443 228.149 564.926 236.267L568.751 235.097L572.576 233.927C569.774 224.765 565.336 216.961 558.254 211.238C551.174 205.514 541.829 202.176 529.767 201.253L529.462 205.241ZM568.751 235.097L568.984 239.09C570.004 239.03 571.033 239 572.068 239V235V231C570.877 231 569.693 231.035 568.518 231.103L568.751 235.097ZM572.068 235V239C600.787 239 624.068 262.281 624.068 291H628.068H632.068C632.068 257.863 605.205 231 572.068 231V235ZM628.068 291H624.068C624.068 296.51 623.213 301.813 621.63 306.787L625.441 308L629.253 309.213C631.083 303.464 632.068 297.343 632.068 291H628.068ZM625.441 308V304H176V308V312H625.441V308ZM176 308L178.482 311.137C192.154 300.317 210.8 291.049 229.44 284.341C248.093 277.628 266.368 273.611 279.181 273.065L279.011 269.068L278.84 265.072C264.952 265.665 245.846 269.935 226.731 276.814C207.603 283.698 188.095 293.327 173.518 304.863L176 308ZM279.011 269.068L282.865 270.139C288.189 250.977 304.332 237.413 323.029 237.413V233.413V229.413C300.231 229.413 281.3 245.887 275.157 267.998L279.011 269.068ZM323.029 233.413V237.413C323.843 237.413 324.654 237.439 325.461 237.49L325.712 233.498L325.963 229.506C324.994 229.445 324.016 229.413 323.029 229.413V233.413ZM325.712 233.498L329.596 234.453C338.211 199.399 367.343 174 401.529 174V170V166C363.136 166 331.19 194.449 321.828 232.543L325.712 233.498ZM401.529 170V174C416.648 174 430.728 178.946 442.505 187.484L444.853 184.245L447.2 181.007C434.144 171.542 418.438 166 401.529 166V170ZM444.853 184.245L447.592 187.16C456.362 178.92 467.693 174 480.029 174V170V166C465.492 166 452.242 171.813 442.114 181.33L444.853 184.245Z" fill="#FFE8B3" mask="url(#path-1-inside-1_40_133)"/>
<mask id="path-3-inside-2_40_133" fill="white">
<path d="M154.966 264C140.803 264 128.629 273.294 123.259 286.606C108.518 287.734 101.441 294.674 98.0508 305.761C97.3471 305.72 96.6378 305.697 95.9238 305.697C76.0837 305.697 60 321.781 60 341.621C60 345.423 60.5937 349.087 61.6885 352.526H349.999C331.878 338.186 301.049 328.285 283.92 327.554C280.243 314.315 268.991 304.68 255.681 304.68C255.103 304.68 254.529 304.7 253.96 304.735C248.194 281.272 228.604 264 205.323 264C195.051 264 185.496 267.364 177.531 273.138C171.469 267.442 163.585 264 154.966 264Z"/>
</mask>
<path d="M154.966 264C140.803 264 128.629 273.294 123.259 286.606C108.518 287.734 101.441 294.674 98.0508 305.761C97.3471 305.72 96.6378 305.697 95.9238 305.697C76.0837 305.697 60 321.781 60 341.621C60 345.423 60.5937 349.087 61.6885 352.526H349.999C331.878 338.186 301.049 328.285 283.92 327.554C280.243 314.315 268.991 304.68 255.681 304.68C255.103 304.68 254.529 304.7 253.96 304.735C248.194 281.272 228.604 264 205.323 264C195.051 264 185.496 267.364 177.531 273.138C171.469 267.442 163.585 264 154.966 264Z" fill="#FFE8B3"/>
<path d="M154.966 264L154.966 254H154.966V264ZM123.259 286.606L132.533 290.347L130.211 296.104L124.021 296.577L123.259 286.606ZM98.0508 305.761L107.614 308.685L105.315 316.202L97.4678 315.744L98.0508 305.761ZM95.9238 305.697L95.9238 295.697L95.9239 295.697L95.9238 305.697ZM60 341.621L50 341.621V341.621H60ZM61.6885 352.526V362.526H54.377L52.1595 355.559L61.6885 352.526ZM349.999 352.526L356.205 344.685L378.75 362.526H349.999V352.526ZM283.92 327.554L283.493 337.545L276.23 337.235L274.285 330.23L283.92 327.554ZM255.681 304.68L255.68 294.68H255.681V304.68ZM253.96 304.735L254.588 314.716L246.244 315.24L244.249 307.122L253.96 304.735ZM205.323 264L205.323 254H205.323V264ZM177.531 273.138L183.401 281.234L176.708 286.086L170.684 280.426L177.531 273.138ZM154.966 264L154.966 274C145.429 274 136.593 280.283 132.533 290.347L123.259 286.606L113.985 282.865C120.665 266.305 136.178 254 154.966 254L154.966 264ZM123.259 286.606L124.021 296.577C118.089 297.031 114.743 298.562 112.685 300.226C110.628 301.888 108.91 304.447 107.614 308.685L98.0508 305.761L88.488 302.836C90.5825 295.987 94.098 289.533 100.112 284.672C106.125 279.812 113.688 277.309 122.496 276.636L123.259 286.606ZM98.0508 305.761L97.4678 315.744C96.9434 315.713 96.429 315.697 95.9237 315.697L95.9238 305.697L95.9239 295.697C96.8466 295.697 97.7508 295.726 98.6337 295.778L98.0508 305.761ZM95.9238 305.697L95.9239 315.697C81.6066 315.697 70 327.304 70 341.621H60H50C50 316.258 70.5609 295.697 95.9238 295.697L95.9238 305.697ZM60 341.621L70 341.621C70 344.377 70.4295 347.018 71.2174 349.493L61.6885 352.526L52.1595 355.559C50.758 351.156 50 346.47 50 341.621L60 341.621ZM61.6885 352.526V342.526H349.999V352.526V362.526H61.6885V352.526ZM349.999 352.526L343.793 360.368C335.865 354.094 324.704 348.485 313.201 344.346C301.664 340.194 290.715 337.853 283.493 337.545L283.92 327.554L284.346 317.563C294.254 317.986 307.283 320.961 319.973 325.527C332.698 330.106 346.012 336.618 356.205 344.685L349.999 352.526ZM283.92 327.554L274.285 330.23C271.631 320.677 263.866 314.68 255.681 314.68V304.68V294.68C274.116 294.68 288.854 307.952 293.555 324.877L283.92 327.554ZM255.681 304.68L255.681 314.68C255.332 314.68 254.968 314.692 254.588 314.716L253.96 304.735L253.332 294.755C254.09 294.707 254.874 294.68 255.68 294.68L255.681 304.68ZM253.96 304.735L244.249 307.122C239.417 287.46 223.345 274 205.323 274V264V254C233.863 254 256.971 275.085 263.671 302.349L253.96 304.735ZM205.323 264L205.323 274C197.288 274 189.767 276.619 183.401 281.234L177.531 273.138L171.662 265.041C181.226 258.108 192.813 254 205.323 254L205.323 264ZM177.531 273.138L170.684 280.426C166.32 276.326 160.834 274 154.966 274V264V254C166.336 254 176.619 258.559 184.379 265.85L177.531 273.138Z" fill="url(#paint0_linear_40_133)" mask="url(#path-3-inside-2_40_133)"/>
<mask id="path-5-inside-3_40_133" fill="white">
<path d="M94.9658 0C80.8033 0.000235699 68.6289 9.29394 63.2588 22.6064C48.518 23.7338 41.4413 30.6739 38.0508 41.7607C37.3471 41.7196 36.6378 41.6973 35.9238 41.6973C16.0837 41.6974 0 57.781 0 77.6211C9.08771e-06 81.4235 0.593742 85.0869 1.68848 88.5264H289.999C271.878 74.1859 241.049 64.285 223.92 63.5537C220.243 50.3148 208.991 40.6797 195.681 40.6797C195.103 40.6797 194.529 40.6995 193.96 40.7354C188.194 17.2723 168.604 0 145.323 0C135.051 0.000119268 125.496 3.36352 117.531 9.1377C111.469 3.44242 103.585 0 94.9658 0Z"/>
</mask>
<path d="M94.9658 0C80.8033 0.000235699 68.6289 9.29394 63.2588 22.6064C48.518 23.7338 41.4413 30.6739 38.0508 41.7607C37.3471 41.7196 36.6378 41.6973 35.9238 41.6973C16.0837 41.6974 0 57.781 0 77.6211C9.08771e-06 81.4235 0.593742 85.0869 1.68848 88.5264H289.999C271.878 74.1859 241.049 64.285 223.92 63.5537C220.243 50.3148 208.991 40.6797 195.681 40.6797C195.103 40.6797 194.529 40.6995 193.96 40.7354C188.194 17.2723 168.604 0 145.323 0C135.051 0.000119268 125.496 3.36352 117.531 9.1377C111.469 3.44242 103.585 0 94.9658 0Z" fill="#FFE8B3"/>
<path d="M94.9658 0L94.9657 -10H94.9658V0ZM63.2588 22.6064L72.5327 26.3474L70.2105 32.104L64.0213 32.5773L63.2588 22.6064ZM38.0508 41.7607L47.6136 44.6852L45.3148 52.202L37.4678 51.7437L38.0508 41.7607ZM35.9238 41.6973L35.9238 31.6973L35.9239 31.6973L35.9238 41.6973ZM0 77.6211L-10 77.6211V77.6211H0ZM1.68848 88.5264V98.5264H-5.62298L-7.8405 91.5593L1.68848 88.5264ZM289.999 88.5264L296.205 80.6848L318.75 98.5264H289.999V88.5264ZM223.92 63.5537L223.493 73.5446L216.23 73.2345L214.285 66.2301L223.92 63.5537ZM195.681 40.6797L195.68 30.6797H195.681V40.6797ZM193.96 40.7354L194.588 50.7156L186.244 51.2403L184.249 43.1217L193.96 40.7354ZM145.323 0L145.323 -10H145.323V0ZM117.531 9.1377L123.401 17.234L116.708 22.0856L110.684 16.4257L117.531 9.1377ZM94.9658 0L94.966 10C85.4286 10.0002 76.5925 16.2832 72.5327 26.3474L63.2588 22.6064L53.9849 18.8654C60.6653 2.30472 76.1781 -9.99969 94.9657 -10L94.9658 0ZM63.2588 22.6064L64.0213 32.5773C58.0885 33.031 54.743 34.5622 52.6845 36.226C50.6278 37.8884 48.9096 40.4474 47.6136 44.6852L38.0508 41.7607L28.488 38.8363C30.5825 31.9873 34.098 25.5328 40.1124 20.6715C46.1251 15.8117 53.6883 13.3092 62.4963 12.6356L63.2588 22.6064ZM38.0508 41.7607L37.4678 51.7437C36.9434 51.7131 36.429 51.6973 35.9237 51.6973L35.9238 41.6973L35.9239 31.6973C36.8466 31.6973 37.7508 31.7262 38.6337 31.7777L38.0508 41.7607ZM35.9238 41.6973L35.9239 51.6973C21.6066 51.6973 10 63.3039 10 77.6211H0H-10C-10 52.2581 10.5609 31.6974 35.9238 31.6973L35.9238 41.6973ZM0 77.6211L10 77.6211C10 80.3766 10.4295 83.0177 11.2174 85.4934L1.68848 88.5264L-7.8405 91.5593C-9.24197 87.1561 -9.99999 82.4704 -10 77.6211L0 77.6211ZM1.68848 88.5264V78.5264H289.999V88.5264V98.5264H1.68848V88.5264ZM289.999 88.5264L283.793 96.368C275.865 90.094 264.704 84.4853 253.201 80.3459C241.664 76.1942 230.715 73.8529 223.493 73.5446L223.92 63.5537L224.346 53.5628C234.254 53.9858 247.283 56.9606 259.973 61.5273C272.698 66.1063 286.012 72.6183 296.205 80.6848L289.999 88.5264ZM223.92 63.5537L214.285 66.2301C211.631 56.6774 203.866 50.6797 195.681 50.6797V40.6797V30.6797C214.116 30.6797 228.854 43.9522 233.555 60.8773L223.92 63.5537ZM195.681 40.6797L195.681 50.6797C195.332 50.6797 194.968 50.6917 194.588 50.7156L193.96 40.7354L193.332 30.7551C194.09 30.7074 194.874 30.6797 195.68 30.6797L195.681 40.6797ZM193.96 40.7354L184.249 43.1217C179.417 23.4598 163.345 10 145.323 10V0V-10C173.863 -10 196.971 11.0848 203.671 38.349L193.96 40.7354ZM145.323 0L145.323 10C137.288 10.0001 129.767 12.619 123.401 17.234L117.531 9.1377L111.662 1.04137C121.226 -5.89196 132.813 -9.99985 145.323 -10L145.323 0ZM117.531 9.1377L110.684 16.4257C106.32 12.3258 100.834 10 94.9658 10V0V-10C106.336 -10 116.619 -5.441 124.379 1.84971L117.531 9.1377Z" fill="url(#paint1_linear_40_133)" mask="url(#path-5-inside-3_40_133)"/>
<g filter="url(#filter0_d_40_133)">
<path d="M362 875L371.549 908.46L405.301 900L381.098 925L405.301 950L371.549 941.54L362 975L352.451 941.54L318.699 950L342.902 925L318.699 900L352.451 908.46L362 875Z" fill="#FFE8B3"/>
</g>
<g filter="url(#filter1_d_40_133)">
<path d="M362 377L371.549 410.46L405.301 402L381.098 427L405.301 452L371.549 443.54L362 477L352.451 443.54L318.699 452L342.902 427L318.699 402L352.451 410.46L362 377Z" fill="#FFE8B3"/>
</g>
<g filter="url(#filter2_d_40_133)">
<path d="M279 170L283.321 181.679L295 186L283.321 190.321L279 202L274.679 190.321L263 186L274.679 181.679L279 170Z" fill="#FFE8B3"/>
</g>
<g filter="url(#filter3_d_40_133)">
<path d="M313 818L317.321 829.679L329 834L317.321 838.321L313 850L308.679 838.321L297 834L308.679 829.679L313 818Z" fill="#FFE8B3"/>
</g>
<path d="M92 541C68.5281 541 45.0003 556.79 45 577.5C45 598.211 73.5279 613.5 97 613.5C100.17 613.5 103.086 613.218 105.759 612.685C106.816 613.158 107.898 613.591 109 613.983V607.675C108.115 607.984 107.187 608.257 106.215 608.491C93.558 602.329 85 589.98 85 578C85.0002 565.121 94.8546 551.601 109 545.854V541.578C108.867 541.626 108.734 541.673 108.602 541.723C104 541.248 98.5182 541 92 541ZM92 545C95.4374 545 98.5567 545.073 101.386 545.207C89.161 552.537 81.0002 565.341 81 578C81 590.084 88.4371 602.105 99.7471 609.42C98.8599 609.472 97.9443 609.5 97 609.5C86.0387 609.5 73.7819 605.902 64.3467 599.893C54.8216 593.826 49 585.893 49 577.5C49.0001 568.766 53.959 560.717 62.0801 554.696C69.9422 548.867 80.4289 545.232 90.9785 545.011L92 545Z" fill="#FFE8B3"/>
<path d="M92 541C68.5281 541 45.0003 556.79 45 577.5C45 598.211 73.5279 613.5 97 613.5C100.17 613.5 103.086 613.218 105.759 612.685C106.816 613.158 107.898 613.591 109 613.983V607.675C108.115 607.984 107.187 608.257 106.215 608.491C93.558 602.329 85 589.98 85 578C85.0002 565.121 94.8546 551.601 109 545.854V541.578C108.867 541.626 108.734 541.673 108.602 541.723C104 541.248 98.5182 541 92 541ZM92 545C95.4374 545 98.5567 545.073 101.386 545.207C89.161 552.537 81.0002 565.341 81 578C81 590.084 88.4371 602.105 99.7471 609.42C98.8599 609.472 97.9443 609.5 97 609.5C86.0387 609.5 73.7819 605.902 64.3467 599.893C54.8216 593.826 49 585.893 49 577.5C49.0001 568.766 53.959 560.717 62.0801 554.696C69.9422 548.867 80.4289 545.232 90.9785 545.011L92 545Z" fill="#FFE8B3"/>
<path d="M92 541C68.5281 541 45.0003 556.79 45 577.5C45 598.211 73.5279 613.5 97 613.5C100.17 613.5 103.086 613.218 105.759 612.685C106.816 613.158 107.898 613.591 109 613.983V607.675C108.115 607.984 107.187 608.257 106.215 608.491C93.558 602.329 85 589.98 85 578C85.0002 565.121 94.8546 551.601 109 545.854V541.578C108.867 541.626 108.734 541.673 108.602 541.723C104 541.248 98.5182 541 92 541ZM92 545C95.4374 545 98.5567 545.073 101.386 545.207C89.161 552.537 81.0002 565.341 81 578C81 590.084 88.4371 602.105 99.7471 609.42C98.8599 609.472 97.9443 609.5 97 609.5C86.0387 609.5 73.7819 605.902 64.3467 599.893C54.8216 593.826 49 585.893 49 577.5C49.0001 568.766 53.959 560.717 62.0801 554.696C69.9422 548.867 80.4289 545.232 90.9785 545.011L92 545Z" fill="#FFE8B3"/>
<path d="M92 541C68.5281 541 45.0003 556.79 45 577.5C45 598.211 73.5279 613.5 97 613.5C100.17 613.5 103.086 613.218 105.759 612.685C106.816 613.158 107.898 613.591 109 613.983V607.675C108.115 607.984 107.187 608.257 106.215 608.491C93.558 602.329 85 589.98 85 578C85.0002 565.121 94.8546 551.601 109 545.854V541.578C108.867 541.626 108.734 541.673 108.602 541.723C104 541.248 98.5182 541 92 541ZM92 545C95.4374 545 98.5567 545.073 101.386 545.207C89.161 552.537 81.0002 565.341 81 578C81 590.084 88.4371 602.105 99.7471 609.42C98.8599 609.472 97.9443 609.5 97 609.5C86.0387 609.5 73.7819 605.902 64.3467 599.893C54.8216 593.826 49 585.893 49 577.5C49.0001 568.766 53.959 560.717 62.0801 554.696C69.9422 548.867 80.4289 545.232 90.9785 545.011L92 545Z" fill="#FFE8B3"/>
<path d="M282 607C305.472 607 329 622.79 329 643.5C329 664.211 300.472 679.5 277 679.5C273.83 679.5 270.914 679.218 268.241 678.685C267.184 679.158 266.102 679.591 265 679.983V673.675C265.885 673.984 266.813 674.257 267.785 674.491C280.442 668.329 289 655.98 289 644C289 631.121 279.145 617.601 265 611.854V607.578C265.133 607.626 265.266 607.673 265.398 607.723C270 607.248 275.482 607 282 607ZM282 611C278.563 611 275.443 611.073 272.614 611.207C284.839 618.537 293 631.341 293 644C293 656.084 285.563 668.105 274.253 675.42C275.14 675.472 276.056 675.5 277 675.5C287.961 675.5 300.218 671.902 309.653 665.893C319.178 659.826 325 651.893 325 643.5C325 634.766 320.041 626.717 311.92 620.696C304.058 614.867 293.571 611.232 283.021 611.011L282 611Z" fill="#FFE8B3"/>
<path d="M282 607C305.472 607 329 622.79 329 643.5C329 664.211 300.472 679.5 277 679.5C273.83 679.5 270.914 679.218 268.241 678.685C267.184 679.158 266.102 679.591 265 679.983V673.675C265.885 673.984 266.813 674.257 267.785 674.491C280.442 668.329 289 655.98 289 644C289 631.121 279.145 617.601 265 611.854V607.578C265.133 607.626 265.266 607.673 265.398 607.723C270 607.248 275.482 607 282 607ZM282 611C278.563 611 275.443 611.073 272.614 611.207C284.839 618.537 293 631.341 293 644C293 656.084 285.563 668.105 274.253 675.42C275.14 675.472 276.056 675.5 277 675.5C287.961 675.5 300.218 671.902 309.653 665.893C319.178 659.826 325 651.893 325 643.5C325 634.766 320.041 626.717 311.92 620.696C304.058 614.867 293.571 611.232 283.021 611.011L282 611Z" fill="#FFE8B3"/>
<path d="M282 607C305.472 607 329 622.79 329 643.5C329 664.211 300.472 679.5 277 679.5C273.83 679.5 270.914 679.218 268.241 678.685C267.184 679.158 266.102 679.591 265 679.983V673.675C265.885 673.984 266.813 674.257 267.785 674.491C280.442 668.329 289 655.98 289 644C289 631.121 279.145 617.601 265 611.854V607.578C265.133 607.626 265.266 607.673 265.398 607.723C270 607.248 275.482 607 282 607ZM282 611C278.563 611 275.443 611.073 272.614 611.207C284.839 618.537 293 631.341 293 644C293 656.084 285.563 668.105 274.253 675.42C275.14 675.472 276.056 675.5 277 675.5C287.961 675.5 300.218 671.902 309.653 665.893C319.178 659.826 325 651.893 325 643.5C325 634.766 320.041 626.717 311.92 620.696C304.058 614.867 293.571 611.232 283.021 611.011L282 611Z" fill="#FFE8B3"/>
<path d="M282 607C305.472 607 329 622.79 329 643.5C329 664.211 300.472 679.5 277 679.5C273.83 679.5 270.914 679.218 268.241 678.685C267.184 679.158 266.102 679.591 265 679.983V673.675C265.885 673.984 266.813 674.257 267.785 674.491C280.442 668.329 289 655.98 289 644C289 631.121 279.145 617.601 265 611.854V607.578C265.133 607.626 265.266 607.673 265.398 607.723C270 607.248 275.482 607 282 607ZM282 611C278.563 611 275.443 611.073 272.614 611.207C284.839 618.537 293 631.341 293 644C293 656.084 285.563 668.105 274.253 675.42C275.14 675.472 276.056 675.5 277 675.5C287.961 675.5 300.218 671.902 309.653 665.893C319.178 659.826 325 651.893 325 643.5C325 634.766 320.041 626.717 311.92 620.696C304.058 614.867 293.571 611.232 283.021 611.011L282 611Z" fill="#FFE8B3"/>
<path d="M148 675C124.528 675 101 690.79 101 711.5C101 732.211 129.528 747.5 153 747.5C156.17 747.5 159.086 747.218 161.759 746.685C162.816 747.158 163.898 747.591 165 747.983V741.675C164.115 741.984 163.187 742.257 162.215 742.491C149.558 736.329 141 723.98 141 712C141 699.121 150.855 685.601 165 679.854V675.578C164.867 675.626 164.734 675.673 164.602 675.723C160 675.248 154.518 675 148 675ZM148 679C151.437 679 154.557 679.073 157.386 679.207C145.161 686.537 137 699.341 137 712C137 724.084 144.437 736.105 155.747 743.42C154.86 743.472 153.944 743.5 153 743.5C142.039 743.5 129.782 739.902 120.347 733.893C110.822 727.826 105 719.893 105 711.5C105 702.766 109.959 694.717 118.08 688.696C125.942 682.867 136.429 679.232 146.979 679.011L148 679Z" fill="#FFE8B3"/>
<path d="M148 675C124.528 675 101 690.79 101 711.5C101 732.211 129.528 747.5 153 747.5C156.17 747.5 159.086 747.218 161.759 746.685C162.816 747.158 163.898 747.591 165 747.983V741.675C164.115 741.984 163.187 742.257 162.215 742.491C149.558 736.329 141 723.98 141 712C141 699.121 150.855 685.601 165 679.854V675.578C164.867 675.626 164.734 675.673 164.602 675.723C160 675.248 154.518 675 148 675ZM148 679C151.437 679 154.557 679.073 157.386 679.207C145.161 686.537 137 699.341 137 712C137 724.084 144.437 736.105 155.747 743.42C154.86 743.472 153.944 743.5 153 743.5C142.039 743.5 129.782 739.902 120.347 733.893C110.822 727.826 105 719.893 105 711.5C105 702.766 109.959 694.717 118.08 688.696C125.942 682.867 136.429 679.232 146.979 679.011L148 679Z" fill="#FFE8B3"/>
<path d="M148 675C124.528 675 101 690.79 101 711.5C101 732.211 129.528 747.5 153 747.5C156.17 747.5 159.086 747.218 161.759 746.685C162.816 747.158 163.898 747.591 165 747.983V741.675C164.115 741.984 163.187 742.257 162.215 742.491C149.558 736.329 141 723.98 141 712C141 699.121 150.855 685.601 165 679.854V675.578C164.867 675.626 164.734 675.673 164.602 675.723C160 675.248 154.518 675 148 675ZM148 679C151.437 679 154.557 679.073 157.386 679.207C145.161 686.537 137 699.341 137 712C137 724.084 144.437 736.105 155.747 743.42C154.86 743.472 153.944 743.5 153 743.5C142.039 743.5 129.782 739.902 120.347 733.893C110.822 727.826 105 719.893 105 711.5C105 702.766 109.959 694.717 118.08 688.696C125.942 682.867 136.429 679.232 146.979 679.011L148 679Z" fill="#FFE8B3"/>
<path d="M148 675C124.528 675 101 690.79 101 711.5C101 732.211 129.528 747.5 153 747.5C156.17 747.5 159.086 747.218 161.759 746.685C162.816 747.158 163.898 747.591 165 747.983V741.675C164.115 741.984 163.187 742.257 162.215 742.491C149.558 736.329 141 723.98 141 712C141 699.121 150.855 685.601 165 679.854V675.578C164.867 675.626 164.734 675.673 164.602 675.723C160 675.248 154.518 675 148 675ZM148 679C151.437 679 154.557 679.073 157.386 679.207C145.161 686.537 137 699.341 137 712C137 724.084 144.437 736.105 155.747 743.42C154.86 743.472 153.944 743.5 153 743.5C142.039 743.5 129.782 739.902 120.347 733.893C110.822 727.826 105 719.893 105 711.5C105 702.766 109.959 694.717 118.08 688.696C125.942 682.867 136.429 679.232 146.979 679.011L148 679Z" fill="#FFE8B3"/>
<line y1="-2" x2="541" y2="-2" transform="matrix(-1 0 0 1 633 545)" stroke="#FFE8B3" stroke-width="4"/>
<line x1="572" y1="527" x2="152" y2="527" stroke="#FFE8B3" stroke-width="6"/>
<line x1="265" y1="611" x2="109" y2="611" stroke="#FFE8B3" stroke-width="4"/>
<line x1="265" y1="677" x2="161" y2="677" stroke="#FFE8B3" stroke-width="4"/>
<line x1="222" y1="744" x2="161" y2="744" stroke="#FFE8B3" stroke-width="4"/>
<defs>
<filter id="filter0_d_40_133" x="308.699" y="865" width="106.603" height="120" filterUnits="userSpaceOnUse" color-interpolation-filters="sRGB">
<feFlood flood-opacity="0" result="BackgroundImageFix"/>
<feColorMatrix in="SourceAlpha" type="matrix" values="0 0 0 0 0 0 0 0 0 0 0 0 0 0 0 0 0 0 127 0" result="hardAlpha"/>
<feOffset/>
<feGaussianBlur stdDeviation="5"/>
<feComposite in2="hardAlpha" operator="out"/>
<feColorMatrix type="matrix" values="0 0 0 0 1 0 0 0 0 0.911154 0 0 0 0 0.703846 0 0 0 1 0"/>
<feBlend mode="normal" in2="BackgroundImageFix" result="effect1_dropShadow_40_133"/>
<feBlend mode="normal" in="SourceGraphic" in2="effect1_dropShadow_40_133" result="shape"/>
</filter>
<filter id="filter1_d_40_133" x="308.699" y="367" width="106.603" height="120" filterUnits="userSpaceOnUse" color-interpolation-filters="sRGB">
<feFlood flood-opacity="0" result="BackgroundImageFix"/>
<feColorMatrix in="SourceAlpha" type="matrix" values="0 0 0 0 0 0 0 0 0 0 0 0 0 0 0 0 0 0 127 0" result="hardAlpha"/>
<feOffset/>
<feGaussianBlur stdDeviation="5"/>
<feComposite in2="hardAlpha" operator="out"/>
<feColorMatrix type="matrix" values="0 0 0 0 1 0 0 0 0 0.911154 0 0 0 0 0.703846 0 0 0 1 0"/>
<feBlend mode="normal" in2="BackgroundImageFix" result="effect1_dropShadow_40_133"/>
<feBlend mode="normal" in="SourceGraphic" in2="effect1_dropShadow_40_133" result="shape"/>
</filter>
<filter id="filter2_d_40_133" x="253" y="160" width="52" height="52" filterUnits="userSpaceOnUse" color-interpolation-filters="sRGB">
<feFlood flood-opacity="0" result="BackgroundImageFix"/>
<feColorMatrix in="SourceAlpha" type="matrix" values="0 0 0 0 0 0 0 0 0 0 0 0 0 0 0 0 0 0 127 0" result="hardAlpha"/>
<feOffset/>
<feGaussianBlur stdDeviation="5"/>
<feComposite in2="hardAlpha" operator="out"/>
<feColorMatrix type="matrix" values="0 0 0 0 1 0 0 0 0 0.911154 0 0 0 0 0.703846 0 0 0 1 0"/>
<feBlend mode="normal" in2="BackgroundImageFix" result="effect1_dropShadow_40_133"/>
<feBlend mode="normal" in="SourceGraphic" in2="effect1_dropShadow_40_133" result="shape"/>
</filter>
<filter id="filter3_d_40_133" x="287" y="808" width="52" height="52" filterUnits="userSpaceOnUse" color-interpolation-filters="sRGB">
<feFlood flood-opacity="0" result="BackgroundImageFix"/>
<feColorMatrix in="SourceAlpha" type="matrix" values="0 0 0 0 0 0 0 0 0 0 0 0 0 0 0 0 0 0 127 0" result="hardAlpha"/>
<feOffset/>
<feGaussianBlur stdDeviation="5"/>
<feComposite in2="hardAlpha" operator="out"/>
<feColorMatrix type="matrix" values="0 0 0 0 1 0 0 0 0 0.911154 0 0 0 0 0.703846 0 0 0 1 0"/>
<feBlend mode="normal" in2="BackgroundImageFix" result="effect1_dropShadow_40_133"/>
<feBlend mode="normal" in="SourceGraphic" in2="effect1_dropShadow_40_133" result="shape"/>
</filter>
<linearGradient id="paint0_linear_40_133" x1="229" y1="29.5" x2="229" y2="1044" gradientUnits="userSpaceOnUse">
<stop stop-color="#36336A"/>
<stop offset="1" stop-color="#724C6A"/>
</linearGradient>
<linearGradient id="paint1_linear_40_133" x1="145" y1="32" x2="145" y2="1050.5" gradientUnits="userSpaceOnUse">
<stop stop-color="#36336A"/>
<stop offset="1" stop-color="#724C6A"/>
</linearGradient>
</defs>
</svg>
