<svg width="741" height="919" viewBox="0 0 741 919" fill="none" xmlns="http://www.w3.org/2000/svg">
<mask id="path-1-inside-1_40_132" fill="white">
<path d="M370.966 508C356.803 508 344.629 517.294 339.259 530.606C324.518 531.734 317.441 538.674 314.051 549.761C313.347 549.72 312.638 549.697 311.924 549.697C292.084 549.697 276 565.781 276 585.621C276 589.423 276.594 593.087 277.688 596.526H565.999C547.878 582.186 517.049 572.285 499.92 571.554C496.243 558.315 484.991 548.68 471.681 548.68C471.103 548.68 470.529 548.7 469.96 548.735C464.194 525.272 444.604 508 421.323 508C411.051 508 401.496 511.364 393.531 517.138C387.469 511.442 379.585 508 370.966 508Z"/>
</mask>
<path d="M370.966 508C356.803 508 344.629 517.294 339.259 530.606C324.518 531.734 317.441 538.674 314.051 549.761C313.347 549.72 312.638 549.697 311.924 549.697C292.084 549.697 276 565.781 276 585.621C276 589.423 276.594 593.087 277.688 596.526H565.999C547.878 582.186 517.049 572.285 499.92 571.554C496.243 558.315 484.991 548.68 471.681 548.68C471.103 548.68 470.529 548.7 469.96 548.735C464.194 525.272 444.604 508 421.323 508C411.051 508 401.496 511.364 393.531 517.138C387.469 511.442 379.585 508 370.966 508Z" fill="#FFE8B3"/>
<path d="M370.966 508L370.966 498H370.966V508ZM339.259 530.606L348.533 534.347L346.211 540.104L340.021 540.577L339.259 530.606ZM314.051 549.761L323.614 552.685L321.315 560.202L313.468 559.744L314.051 549.761ZM311.924 549.697L311.924 539.697L311.924 539.697L311.924 549.697ZM276 585.621L266 585.621V585.621H276ZM277.688 596.526V606.526H270.377L268.16 599.559L277.688 596.526ZM565.999 596.526L572.205 588.685L594.75 606.526H565.999V596.526ZM499.92 571.554L499.493 581.545L492.23 581.235L490.285 574.23L499.92 571.554ZM471.681 548.68L471.68 538.68H471.681V548.68ZM469.96 548.735L470.588 558.716L462.244 559.24L460.249 551.122L469.96 548.735ZM421.323 508L421.323 498H421.323V508ZM393.531 517.138L399.401 525.234L392.708 530.086L386.684 524.426L393.531 517.138ZM370.966 508L370.966 518C361.429 518 352.593 524.283 348.533 534.347L339.259 530.606L329.985 526.865C336.665 510.305 352.178 498 370.966 498L370.966 508ZM339.259 530.606L340.021 540.577C334.089 541.031 330.743 542.562 328.685 544.226C326.628 545.888 324.91 548.447 323.614 552.685L314.051 549.761L304.488 546.836C306.583 539.987 310.098 533.533 316.112 528.672C322.125 523.812 329.688 521.309 338.496 520.636L339.259 530.606ZM314.051 549.761L313.468 559.744C312.943 559.713 312.429 559.697 311.924 559.697L311.924 549.697L311.924 539.697C312.847 539.697 313.751 539.726 314.634 539.778L314.051 549.761ZM311.924 549.697L311.924 559.697C297.607 559.697 286 571.304 286 585.621H276H266C266 560.258 286.561 539.697 311.924 539.697L311.924 549.697ZM276 585.621L286 585.621C286 588.377 286.429 591.018 287.217 593.493L277.688 596.526L268.16 599.559C266.758 595.156 266 590.47 266 585.621L276 585.621ZM277.688 596.526V586.526H565.999V596.526V606.526H277.688V596.526ZM565.999 596.526L559.793 604.368C551.865 598.094 540.704 592.485 529.201 588.346C517.664 584.194 506.715 581.853 499.493 581.545L499.92 571.554L500.346 561.563C510.254 561.986 523.283 564.961 535.973 569.527C548.698 574.106 562.012 580.618 572.205 588.685L565.999 596.526ZM499.92 571.554L490.285 574.23C487.631 564.677 479.866 558.68 471.681 558.68V548.68V538.68C490.116 538.68 504.854 551.952 509.555 568.877L499.92 571.554ZM471.681 548.68L471.681 558.68C471.332 558.68 470.968 558.692 470.588 558.716L469.96 548.735L469.332 538.755C470.09 538.707 470.874 538.68 471.68 538.68L471.681 548.68ZM469.96 548.735L460.249 551.122C455.417 531.46 439.345 518 421.323 518V508V498C449.863 498 472.971 519.085 479.671 546.349L469.96 548.735ZM421.323 508L421.323 518C413.288 518 405.767 520.619 399.401 525.234L393.531 517.138L387.662 509.041C397.226 502.108 408.813 498 421.323 498L421.323 508ZM393.531 517.138L386.684 524.426C382.32 520.326 376.834 518 370.966 518V508V498C382.336 498 392.619 502.559 400.379 509.85L393.531 517.138Z" fill="url(#paint0_linear_40_132)" mask="url(#path-1-inside-1_40_132)"/>
<path d="M583.029 179C604.183 179 622.499 192.885 630.607 212.989L631.071 214.141L632.31 214.235C643.509 215.093 651.588 218.139 657.482 222.903C663.377 227.668 667.276 234.303 669.839 242.682L670.298 244.185L671.867 244.094C672.926 244.032 673.994 244 675.068 244C704.892 244 729.068 268.177 729.068 298C729.068 303.208 728.33 308.24 726.956 313H285.005C298.291 303.543 315.066 295.469 331.763 289.46C350.531 282.706 369.014 278.625 382.096 278.066L383.549 278.005L383.938 276.604C389.466 256.705 406.307 242.413 426.029 242.413C426.886 242.413 427.739 242.441 428.586 242.494L430.255 242.599L430.654 240.976C439.456 205.161 469.291 179 504.529 179C520.096 179 534.582 184.095 546.679 192.864L548.018 193.835L549.222 192.703C558.332 184.144 570.143 179 583.029 179Z" fill="#FFE8B3" stroke="#FFE8B3" stroke-width="4"/>
<path d="M448.323 265C468.974 265 486.806 280.366 492.104 301.929L493.102 305.988L497.273 305.726C497.511 305.711 497.747 305.699 497.981 305.691L498.681 305.68C509.428 305.68 518.937 313.496 522.103 324.892L523.075 328.395L526.707 328.549C534.6 328.886 546.07 331.386 557.895 335.642C564.081 337.868 570.237 340.53 575.919 343.526H308.564C308.195 341.617 308 339.643 308 337.621C308 320.809 321.416 307.13 338.126 306.707L338.924 306.697C339.533 306.697 340.146 306.716 340.76 306.752L344.683 306.981L345.832 303.223C347.328 298.332 349.495 294.799 352.541 292.337C355.588 289.874 359.988 288.101 366.64 287.592L369.734 287.355L370.896 284.477C375.537 272.971 385.789 265.245 397.411 265.006L397.966 265C405.21 265 411.895 267.884 417.107 272.781L420.12 275.611L423.466 273.186C430.407 268.153 438.637 265.189 447.467 265.009L448.323 265Z" fill="#FFE8B3" stroke="url(#paint1_linear_40_132)" stroke-width="10"/>
<g filter="url(#filter0_d_40_132)">
<path d="M545 513L549.321 524.679L561 529L549.321 533.321L545 545L540.679 533.321L529 529L540.679 524.679L545 513Z" fill="#FFE8B3"/>
</g>
<g filter="url(#filter1_d_40_132)">
<path d="M548 124L552.321 135.679L564 140L552.321 144.321L548 156L543.679 144.321L532 140L543.679 135.679L548 124Z" fill="#FFE8B3"/>
</g>
<g filter="url(#filter2_d_40_132)">
<path d="M455 877L459.321 888.679L471 893L459.321 897.321L455 909L450.679 897.321L439 893L450.679 888.679L455 877Z" fill="#FFE8B3"/>
</g>
<path d="M694 17C717.472 17.0001 741 32.7896 741 53.5C741 74.2106 712.472 89.4999 689 89.5C685.83 89.5 682.914 89.2182 680.241 88.6846C679.184 89.1581 678.102 89.591 677 89.9834V83.6748C677.885 83.9836 678.813 84.257 679.785 84.4912C692.442 78.329 701 65.98 701 54C701 41.1211 691.145 27.6008 677 21.8545V17.5781C677.133 17.6265 677.266 17.6731 677.398 17.7227C682 17.2479 687.482 17 694 17ZM694 21C690.563 21 687.443 21.0729 684.614 21.207C696.839 28.5375 705 41.3414 705 54C705 66.0843 697.563 78.1053 686.253 85.4199C687.14 85.4719 688.056 85.5 689 85.5C699.961 85.5 712.218 81.902 721.653 75.8926C731.178 69.8259 737 61.8934 737 53.5C737 44.766 732.041 36.7173 723.92 30.6963C716.058 24.8675 705.571 21.2323 695.021 21.0107L694 21Z" fill="#FFE8B3"/>
<path d="M694 17C717.472 17.0001 741 32.7896 741 53.5C741 74.2106 712.472 89.4999 689 89.5C685.83 89.5 682.914 89.2182 680.241 88.6846C679.184 89.1581 678.102 89.591 677 89.9834V83.6748C677.885 83.9836 678.813 84.257 679.785 84.4912C692.442 78.329 701 65.98 701 54C701 41.1211 691.145 27.6008 677 21.8545V17.5781C677.133 17.6265 677.266 17.6731 677.398 17.7227C682 17.2479 687.482 17 694 17ZM694 21C690.563 21 687.443 21.0729 684.614 21.207C696.839 28.5375 705 41.3414 705 54C705 66.0843 697.563 78.1053 686.253 85.4199C687.14 85.4719 688.056 85.5 689 85.5C699.961 85.5 712.218 81.902 721.653 75.8926C731.178 69.8259 737 61.8934 737 53.5C737 44.766 732.041 36.7173 723.92 30.6963C716.058 24.8675 705.571 21.2323 695.021 21.0107L694 21Z" fill="#FFE8B3"/>
<path d="M694 17C717.472 17.0001 741 32.7896 741 53.5C741 74.2106 712.472 89.4999 689 89.5C685.83 89.5 682.914 89.2182 680.241 88.6846C679.184 89.1581 678.102 89.591 677 89.9834V83.6748C677.885 83.9836 678.813 84.257 679.785 84.4912C692.442 78.329 701 65.98 701 54C701 41.1211 691.145 27.6008 677 21.8545V17.5781C677.133 17.6265 677.266 17.6731 677.398 17.7227C682 17.2479 687.482 17 694 17ZM694 21C690.563 21 687.443 21.0729 684.614 21.207C696.839 28.5375 705 41.3414 705 54C705 66.0843 697.563 78.1053 686.253 85.4199C687.14 85.4719 688.056 85.5 689 85.5C699.961 85.5 712.218 81.902 721.653 75.8926C731.178 69.8259 737 61.8934 737 53.5C737 44.766 732.041 36.7173 723.92 30.6963C716.058 24.8675 705.571 21.2323 695.021 21.0107L694 21Z" fill="#FFE8B3"/>
<path d="M694 17C717.472 17.0001 741 32.7896 741 53.5C741 74.2106 712.472 89.4999 689 89.5C685.83 89.5 682.914 89.2182 680.241 88.6846C679.184 89.1581 678.102 89.591 677 89.9834V83.6748C677.885 83.9836 678.813 84.257 679.785 84.4912C692.442 78.329 701 65.98 701 54C701 41.1211 691.145 27.6008 677 21.8545V17.5781C677.133 17.6265 677.266 17.6731 677.398 17.7227C682 17.2479 687.482 17 694 17ZM694 21C690.563 21 687.443 21.0729 684.614 21.207C696.839 28.5375 705 41.3414 705 54C705 66.0843 697.563 78.1053 686.253 85.4199C687.14 85.4719 688.056 85.5 689 85.5C699.961 85.5 712.218 81.902 721.653 75.8926C731.178 69.8259 737 61.8934 737 53.5C737 44.766 732.041 36.7173 723.92 30.6963C716.058 24.8675 705.571 21.2323 695.021 21.0107L694 21Z" fill="#FFE8B3"/>
<path d="M558 693C581.472 693 605 708.79 605 729.5C605 750.211 576.472 765.5 553 765.5C549.83 765.5 546.914 765.218 544.241 764.685C543.184 765.158 542.102 765.591 541 765.983V759.675C541.885 759.984 542.813 760.257 543.785 760.491C556.442 754.329 565 741.98 565 730C565 717.121 555.145 703.601 541 697.854V693.578C541.133 693.626 541.266 693.673 541.398 693.723C546 693.248 551.482 693 558 693ZM558 697C554.563 697 551.443 697.073 548.614 697.207C560.839 704.537 569 717.341 569 730C569 742.084 561.563 754.105 550.253 761.42C551.14 761.472 552.056 761.5 553 761.5C563.961 761.5 576.218 757.902 585.653 751.893C595.178 745.826 601 737.893 601 729.5C601 720.766 596.041 712.717 587.92 706.696C580.058 700.867 569.571 697.232 559.021 697.011L558 697Z" fill="#FFE8B3"/>
<path d="M558 693C581.472 693 605 708.79 605 729.5C605 750.211 576.472 765.5 553 765.5C549.83 765.5 546.914 765.218 544.241 764.685C543.184 765.158 542.102 765.591 541 765.983V759.675C541.885 759.984 542.813 760.257 543.785 760.491C556.442 754.329 565 741.98 565 730C565 717.121 555.145 703.601 541 697.854V693.578C541.133 693.626 541.266 693.673 541.398 693.723C546 693.248 551.482 693 558 693ZM558 697C554.563 697 551.443 697.073 548.614 697.207C560.839 704.537 569 717.341 569 730C569 742.084 561.563 754.105 550.253 761.42C551.14 761.472 552.056 761.5 553 761.5C563.961 761.5 576.218 757.902 585.653 751.893C595.178 745.826 601 737.893 601 729.5C601 720.766 596.041 712.717 587.92 706.696C580.058 700.867 569.571 697.232 559.021 697.011L558 697Z" fill="#FFE8B3"/>
<path d="M558 693C581.472 693 605 708.79 605 729.5C605 750.211 576.472 765.5 553 765.5C549.83 765.5 546.914 765.218 544.241 764.685C543.184 765.158 542.102 765.591 541 765.983V759.675C541.885 759.984 542.813 760.257 543.785 760.491C556.442 754.329 565 741.98 565 730C565 717.121 555.145 703.601 541 697.854V693.578C541.133 693.626 541.266 693.673 541.398 693.723C546 693.248 551.482 693 558 693ZM558 697C554.563 697 551.443 697.073 548.614 697.207C560.839 704.537 569 717.341 569 730C569 742.084 561.563 754.105 550.253 761.42C551.14 761.472 552.056 761.5 553 761.5C563.961 761.5 576.218 757.902 585.653 751.893C595.178 745.826 601 737.893 601 729.5C601 720.766 596.041 712.717 587.92 706.696C580.058 700.867 569.571 697.232 559.021 697.011L558 697Z" fill="#FFE8B3"/>
<path d="M558 693C581.472 693 605 708.79 605 729.5C605 750.211 576.472 765.5 553 765.5C549.83 765.5 546.914 765.218 544.241 764.685C543.184 765.158 542.102 765.591 541 765.983V759.675C541.885 759.984 542.813 760.257 543.785 760.491C556.442 754.329 565 741.98 565 730C565 717.121 555.145 703.601 541 697.854V693.578C541.133 693.626 541.266 693.673 541.398 693.723C546 693.248 551.482 693 558 693ZM558 697C554.563 697 551.443 697.073 548.614 697.207C560.839 704.537 569 717.341 569 730C569 742.084 561.563 754.105 550.253 761.42C551.14 761.472 552.056 761.5 553 761.5C563.961 761.5 576.218 757.902 585.653 751.893C595.178 745.826 601 737.893 601 729.5C601 720.766 596.041 712.717 587.92 706.696C580.058 700.867 569.571 697.232 559.021 697.011L558 697Z" fill="#FFE8B3"/>
<path d="M435 761C411.528 761 388 776.79 388 797.5C388 818.211 416.528 833.5 440 833.5C443.17 833.5 446.086 833.218 448.759 832.685C449.816 833.158 450.898 833.591 452 833.983V827.675C451.115 827.984 450.187 828.257 449.215 828.491C436.558 822.329 428 809.98 428 798C428 785.121 437.855 771.601 452 765.854V761.578C451.867 761.626 451.734 761.673 451.602 761.723C447 761.248 441.518 761 435 761ZM435 765C438.437 765 441.557 765.073 444.386 765.207C432.161 772.537 424 785.341 424 798C424 810.084 431.437 822.105 442.747 829.42C441.86 829.472 440.944 829.5 440 829.5C429.039 829.5 416.782 825.902 407.347 819.893C397.822 813.826 392 805.893 392 797.5C392 788.766 396.959 780.717 405.08 774.696C412.942 768.867 423.429 765.232 433.979 765.011L435 765Z" fill="#FFE8B3"/>
<path d="M435 761C411.528 761 388 776.79 388 797.5C388 818.211 416.528 833.5 440 833.5C443.17 833.5 446.086 833.218 448.759 832.685C449.816 833.158 450.898 833.591 452 833.983V827.675C451.115 827.984 450.187 828.257 449.215 828.491C436.558 822.329 428 809.98 428 798C428 785.121 437.855 771.601 452 765.854V761.578C451.867 761.626 451.734 761.673 451.602 761.723C447 761.248 441.518 761 435 761ZM435 765C438.437 765 441.557 765.073 444.386 765.207C432.161 772.537 424 785.341 424 798C424 810.084 431.437 822.105 442.747 829.42C441.86 829.472 440.944 829.5 440 829.5C429.039 829.5 416.782 825.902 407.347 819.893C397.822 813.826 392 805.893 392 797.5C392 788.766 396.959 780.717 405.08 774.696C412.942 768.867 423.429 765.232 433.979 765.011L435 765Z" fill="#FFE8B3"/>
<path d="M435 761C411.528 761 388 776.79 388 797.5C388 818.211 416.528 833.5 440 833.5C443.17 833.5 446.086 833.218 448.759 832.685C449.816 833.158 450.898 833.591 452 833.983V827.675C451.115 827.984 450.187 828.257 449.215 828.491C436.558 822.329 428 809.98 428 798C428 785.121 437.855 771.601 452 765.854V761.578C451.867 761.626 451.734 761.673 451.602 761.723C447 761.248 441.518 761 435 761ZM435 765C438.437 765 441.557 765.073 444.386 765.207C432.161 772.537 424 785.341 424 798C424 810.084 431.437 822.105 442.747 829.42C441.86 829.472 440.944 829.5 440 829.5C429.039 829.5 416.782 825.902 407.347 819.893C397.822 813.826 392 805.893 392 797.5C392 788.766 396.959 780.717 405.08 774.696C412.942 768.867 423.429 765.232 433.979 765.011L435 765Z" fill="#FFE8B3"/>
<path d="M435 761C411.528 761 388 776.79 388 797.5C388 818.211 416.528 833.5 440 833.5C443.17 833.5 446.086 833.218 448.759 832.685C449.816 833.158 450.898 833.591 452 833.983V827.675C451.115 827.984 450.187 828.257 449.215 828.491C436.558 822.329 428 809.98 428 798C428 785.121 437.855 771.601 452 765.854V761.578C451.867 761.626 451.734 761.673 451.602 761.723C447 761.248 441.518 761 435 761ZM435 765C438.437 765 441.557 765.073 444.386 765.207C432.161 772.537 424 785.341 424 798C424 810.084 431.437 822.105 442.747 829.42C441.86 829.472 440.944 829.5 440 829.5C429.039 829.5 416.782 825.902 407.347 819.893C397.822 813.826 392 805.893 392 797.5C392 788.766 396.959 780.717 405.08 774.696C412.942 768.867 423.429 765.232 433.979 765.011L435 765Z" fill="#FFE8B3"/>
<line y1="-2" x2="541" y2="-2" transform="matrix(-1 0 0 1 541 698)" stroke="#FFE8B3" stroke-width="4"/>
<line x1="545" y1="763" x2="451" y2="763" stroke="#FFE8B3" stroke-width="4"/>
<line x1="534" y1="831" x2="451" y2="831" stroke="#FFE8B3" stroke-width="4"/>
<line x1="502" y1="675" x2="82" y2="675" stroke="#FFE8B3" stroke-width="6"/>
<line x1="627" y1="3" x2="82" y2="3" stroke="#FFE8B3" stroke-width="6"/>
<line x1="140" y1="19" x2="681" y2="19" stroke="#FFE8B3" stroke-width="4"/>
<line x1="333" y1="88" x2="677" y2="88" stroke="#FFE8B3" stroke-width="4"/>
<line x1="348" y1="148" x2="473" y2="148" stroke="#FFE8B3" stroke-width="4"/>
<g filter="url(#filter3_d_40_132)">
<path d="M482 395L491.549 428.46L525.301 420L501.098 445L525.301 470L491.549 461.54L482 495L472.451 461.54L438.699 470L462.902 445L438.699 420L472.451 428.46L482 395Z" fill="#FFE8B3"/>
</g>
<defs>
<filter id="filter0_d_40_132" x="519" y="503" width="52" height="52" filterUnits="userSpaceOnUse" color-interpolation-filters="sRGB">
<feFlood flood-opacity="0" result="BackgroundImageFix"/>
<feColorMatrix in="SourceAlpha" type="matrix" values="0 0 0 0 0 0 0 0 0 0 0 0 0 0 0 0 0 0 127 0" result="hardAlpha"/>
<feOffset/>
<feGaussianBlur stdDeviation="5"/>
<feComposite in2="hardAlpha" operator="out"/>
<feColorMatrix type="matrix" values="0 0 0 0 1 0 0 0 0 0.911154 0 0 0 0 0.703846 0 0 0 1 0"/>
<feBlend mode="normal" in2="BackgroundImageFix" result="effect1_dropShadow_40_132"/>
<feBlend mode="normal" in="SourceGraphic" in2="effect1_dropShadow_40_132" result="shape"/>
</filter>
<filter id="filter1_d_40_132" x="522" y="114" width="52" height="52" filterUnits="userSpaceOnUse" color-interpolation-filters="sRGB">
<feFlood flood-opacity="0" result="BackgroundImageFix"/>
<feColorMatrix in="SourceAlpha" type="matrix" values="0 0 0 0 0 0 0 0 0 0 0 0 0 0 0 0 0 0 127 0" result="hardAlpha"/>
<feOffset/>
<feGaussianBlur stdDeviation="5"/>
<feComposite in2="hardAlpha" operator="out"/>
<feColorMatrix type="matrix" values="0 0 0 0 1 0 0 0 0 0.911154 0 0 0 0 0.703846 0 0 0 1 0"/>
<feBlend mode="normal" in2="BackgroundImageFix" result="effect1_dropShadow_40_132"/>
<feBlend mode="normal" in="SourceGraphic" in2="effect1_dropShadow_40_132" result="shape"/>
</filter>
<filter id="filter2_d_40_132" x="429" y="867" width="52" height="52" filterUnits="userSpaceOnUse" color-interpolation-filters="sRGB">
<feFlood flood-opacity="0" result="BackgroundImageFix"/>
<feColorMatrix in="SourceAlpha" type="matrix" values="0 0 0 0 0 0 0 0 0 0 0 0 0 0 0 0 0 0 127 0" result="hardAlpha"/>
<feOffset/>
<feGaussianBlur stdDeviation="5"/>
<feComposite in2="hardAlpha" operator="out"/>
<feColorMatrix type="matrix" values="0 0 0 0 1 0 0 0 0 0.911154 0 0 0 0 0.703846 0 0 0 1 0"/>
<feBlend mode="normal" in2="BackgroundImageFix" result="effect1_dropShadow_40_132"/>
<feBlend mode="normal" in="SourceGraphic" in2="effect1_dropShadow_40_132" result="shape"/>
</filter>
<filter id="filter3_d_40_132" x="428.699" y="385" width="106.603" height="120" filterUnits="userSpaceOnUse" color-interpolation-filters="sRGB">
<feFlood flood-opacity="0" result="BackgroundImageFix"/>
<feColorMatrix in="SourceAlpha" type="matrix" values="0 0 0 0 0 0 0 0 0 0 0 0 0 0 0 0 0 0 127 0" result="hardAlpha"/>
<feOffset/>
<feGaussianBlur stdDeviation="5"/>
<feComposite in2="hardAlpha" operator="out"/>
<feColorMatrix type="matrix" values="0 0 0 0 1 0 0 0 0 0.911154 0 0 0 0 0.703846 0 0 0 1 0"/>
<feBlend mode="normal" in2="BackgroundImageFix" result="effect1_dropShadow_40_132"/>
<feBlend mode="normal" in="SourceGraphic" in2="effect1_dropShadow_40_132" result="shape"/>
</filter>
<linearGradient id="paint0_linear_40_132" x1="445" y1="-58.5" x2="445" y2="988.5" gradientUnits="userSpaceOnUse">
<stop stop-color="#36336A"/>
<stop offset="1" stop-color="#724C6A"/>
</linearGradient>
<linearGradient id="paint1_linear_40_132" x1="472" y1="-39.5" x2="472" y2="1040" gradientUnits="userSpaceOnUse">
<stop stop-color="#36336A"/>
<stop offset="1" stop-color="#724C6A"/>
</linearGradient>
</defs>
</svg>
